<svg width="15" height="12" viewBox="0 0 15 12" fill="none" xmlns="http://www.w3.org/2000/svg">
<path d="M10.1667 10.0002L11.5 11.3335L14.1667 8.66683M14.1667 4.66683H0.833374M14.1667 6.00016V3.46683C14.1667 2.72009 14.1667 2.34673 14.0214 2.06151C13.8936 1.81063 13.6896 1.60665 13.4387 1.47882C13.1535 1.3335 12.7801 1.3335 12.0334 1.3335H2.96671C2.21997 1.3335 1.8466 1.3335 1.56139 1.47882C1.3105 1.60665 1.10653 1.81063 0.978699 2.06151C0.833374 2.34672 0.833374 2.72009 0.833374 3.46683V8.5335C0.833374 9.28023 0.833374 9.6536 0.978699 9.93882C1.10653 10.1897 1.3105 10.3937 1.56139 10.5215C1.8466 10.6668 2.21997 10.6668 2.96671 10.6668H7.50004" stroke="#00984C" stroke-linecap="round" stroke-linejoin="round"/>
</svg>
