<svg width="1210" height="842" viewBox="0 0 1210 842" fill="none" xmlns="http://www.w3.org/2000/svg">
<path d="M27.02 21.216C23.186 21.216 20.702 18.552 20.702 14.43C20.702 10.344 23.276 7.626 27.128 7.626C30.242 7.626 32.564 9.444 33.014 12.27H30.584C30.134 10.74 28.82 9.84 27.074 9.84C24.644 9.84 23.114 11.604 23.114 14.412C23.114 17.202 24.662 19.002 27.074 19.002C28.856 19.002 30.224 18.066 30.656 16.608H33.05C32.546 19.38 30.134 21.216 27.02 21.216ZM37.2624 21.234C35.3724 21.234 34.2204 20.136 34.2204 18.462C34.2204 16.824 35.4084 15.798 37.5144 15.636L40.1784 15.438V15.24C40.1784 14.034 39.4584 13.548 38.3424 13.548C37.0464 13.548 36.3264 14.088 36.3264 15.024H34.4544C34.4544 13.098 36.0384 11.838 38.4504 11.838C40.8444 11.838 42.3204 13.134 42.3204 15.6V21H40.3944L40.2324 19.686C39.8544 20.604 38.6484 21.234 37.2624 21.234ZM37.9824 19.578C39.3324 19.578 40.1964 18.768 40.1964 17.4V16.932L38.3424 17.076C36.9744 17.202 36.4524 17.652 36.4524 18.372C36.4524 19.182 36.9924 19.578 37.9824 19.578ZM50.0578 12.072V14.106H49.2478C47.6638 14.106 46.6738 14.952 46.6738 16.68V21H44.4778V12.126H46.5478L46.6738 13.422C47.0518 12.54 47.8978 11.946 49.0858 11.946C49.3918 11.946 49.6978 11.982 50.0578 12.072ZM54.8993 21.234C52.3253 21.234 50.7233 19.344 50.7233 16.59C50.7233 13.818 52.3433 11.838 55.0253 11.838C56.2673 11.838 57.3653 12.36 57.9233 13.242V7.608H60.1013V21H58.0853L57.9413 19.614C57.4013 20.64 56.2493 21.234 54.8993 21.234ZM55.3853 19.218C56.9153 19.218 57.9053 18.12 57.9053 16.518C57.9053 14.916 56.9153 13.8 55.3853 13.8C53.8553 13.8 52.9193 14.934 52.9193 16.518C52.9193 18.102 53.8553 19.218 55.3853 19.218ZM72.7674 16.464H69.8694V21H67.5654V7.842H72.7674C75.4134 7.842 77.1234 9.57 77.1234 12.144C77.1234 14.682 75.3954 16.464 72.7674 16.464ZM72.3174 9.894H69.8694V14.412H72.2814C73.8654 14.412 74.7114 13.566 74.7114 12.126C74.7114 10.686 73.8474 9.894 72.3174 9.894ZM84.3175 12.072V14.106H83.5075C81.9235 14.106 80.9335 14.952 80.9335 16.68V21H78.7375V12.126H80.8075L80.9335 13.422C81.3115 12.54 82.1575 11.946 83.3455 11.946C83.6515 11.946 83.9575 11.982 84.3175 12.072ZM84.9831 16.536C84.9831 13.764 86.9811 11.856 89.7351 11.856C92.4891 11.856 94.4871 13.764 94.4871 16.536C94.4871 19.308 92.4891 21.216 89.7351 21.216C86.9811 21.216 84.9831 19.308 84.9831 16.536ZM87.1791 16.536C87.1791 18.156 88.2231 19.254 89.7351 19.254C91.2471 19.254 92.2911 18.156 92.2911 16.536C92.2911 14.916 91.2471 13.818 89.7351 13.818C88.2231 13.818 87.1791 14.916 87.1791 16.536ZM102.403 21V13.944H98.7666V21H96.5886V13.944H95.3106V12.108H96.5886V11.028C96.5886 8.616 97.8486 7.608 99.6486 7.608C99.9906 7.608 100.405 7.626 100.783 7.698V9.57H100.009C99.0186 9.57 98.7666 10.146 98.7666 11.028V12.108H104.599V21H102.403ZM103.501 10.29C102.763 10.29 102.187 9.714 102.187 8.976C102.187 8.256 102.763 7.68 103.501 7.68C104.221 7.68 104.797 8.256 104.797 8.976C104.797 9.714 104.221 10.29 103.501 10.29ZM109.077 21H106.899V7.608H109.077V21ZM115.358 21.234C112.712 21.234 110.858 19.308 110.858 16.554C110.858 13.764 112.676 11.838 115.286 11.838C117.95 11.838 119.642 13.62 119.642 16.392V17.058L112.946 17.076C113.108 18.642 113.936 19.434 115.394 19.434C116.6 19.434 117.392 18.966 117.644 18.12H119.678C119.3 20.064 117.68 21.234 115.358 21.234ZM115.304 13.638C114.008 13.638 113.216 14.34 113 15.672H117.464C117.464 14.448 116.618 13.638 115.304 13.638Z" fill="#101828"/>
<path d="M25.306 47.154C22.506 47.154 20.602 45.068 20.602 41.988C20.602 38.908 22.534 36.808 25.362 36.808C27.518 36.808 29.212 38.11 29.618 40.098H28.54C28.12 38.656 26.888 37.774 25.32 37.774C23.122 37.774 21.652 39.454 21.652 41.988C21.652 44.508 23.122 46.188 25.32 46.188C26.902 46.188 28.162 45.334 28.596 43.99H29.674C29.212 45.88 27.462 47.154 25.306 47.154ZM34.7492 40.14V41.008H34.2172C32.9712 41.008 32.1732 41.848 32.1732 43.136V47H31.2072V40.224H32.1172L32.1872 41.274C32.4532 40.546 33.1672 40.07 34.1192 40.07C34.3292 40.07 34.5112 40.084 34.7492 40.14ZM38.6156 47.168C36.6276 47.168 35.2976 45.74 35.2976 43.612C35.2976 41.498 36.6136 40.042 38.5456 40.042C40.3796 40.042 41.6256 41.344 41.6256 43.262V43.738H36.2356C36.3056 45.39 37.1736 46.342 38.6296 46.342C39.7356 46.342 40.4496 45.866 40.7016 44.97H41.6256C41.2616 46.398 40.2116 47.168 38.6156 47.168ZM38.5456 40.868C37.2716 40.868 36.4316 41.708 36.2636 43.038H40.6596C40.6596 41.736 39.8196 40.868 38.5456 40.868ZM45.0478 47.168C43.6058 47.168 42.7518 46.356 42.7518 45.166C42.7518 43.92 43.7038 43.136 45.2858 43.01L47.5258 42.828V42.604C47.5258 41.274 46.7278 40.854 45.7338 40.854C44.5578 40.854 43.8578 41.386 43.8578 42.296H42.9758C42.9758 40.924 44.0958 40.042 45.7618 40.042C47.3298 40.042 48.4778 40.826 48.4778 42.618V47H47.6658L47.5398 45.81C47.1198 46.664 46.1958 47.168 45.0478 47.168ZM45.2718 46.384C46.6998 46.384 47.5258 45.39 47.5258 43.92V43.556L45.5238 43.71C44.2498 43.822 43.7318 44.382 43.7318 45.138C43.7318 45.964 44.3478 46.384 45.2718 46.384ZM51.8472 47H50.8952V41.036H49.5372V40.224H50.8952V38.082H51.8472V40.224H53.2052V41.036H51.8472V47ZM57.2367 47.168C55.2487 47.168 53.9187 45.74 53.9187 43.612C53.9187 41.498 55.2347 40.042 57.1667 40.042C59.0007 40.042 60.2467 41.344 60.2467 43.262V43.738H54.8567C54.9267 45.39 55.7947 46.342 57.2507 46.342C58.3567 46.342 59.0707 45.866 59.3227 44.97H60.2467C59.8827 46.398 58.8327 47.168 57.2367 47.168ZM57.1667 40.868C55.8927 40.868 55.0527 41.708 54.8847 43.038H59.2807C59.2807 41.736 58.4407 40.868 57.1667 40.868ZM63.0754 46.524C63.0754 47.392 62.4034 48.148 61.5354 48.274V47.756C62.0394 47.672 62.4034 47.308 62.4034 46.916C62.3194 46.972 62.2074 47.014 62.0394 47.014C61.6474 47.014 61.3114 46.734 61.3114 46.258C61.3114 45.768 61.6474 45.418 62.1374 45.418C62.6414 45.418 63.0754 45.824 63.0754 46.524ZM70.8043 47L68.0323 40.224H69.0683L70.8183 44.592C71.0003 45.082 71.1823 45.544 71.3083 45.992C71.4343 45.53 71.6163 45.082 71.8123 44.592L73.5903 40.224H74.5843L71.7703 47H70.8043ZM76.1988 38.362C75.8068 38.362 75.4848 38.04 75.4848 37.648C75.4848 37.256 75.8068 36.92 76.1988 36.92C76.5908 36.92 76.9268 37.256 76.9268 37.648C76.9268 38.04 76.5908 38.362 76.1988 38.362ZM75.7228 47V40.224H76.6888V47H75.7228ZM81.5453 47.168C79.5573 47.168 78.2273 45.74 78.2273 43.612C78.2273 41.498 79.5433 40.042 81.4753 40.042C83.3093 40.042 84.5553 41.344 84.5553 43.262V43.738H79.1653C79.2353 45.39 80.1033 46.342 81.5593 46.342C82.6653 46.342 83.3793 45.866 83.6313 44.97H84.5553C84.1913 46.398 83.1413 47.168 81.5453 47.168ZM81.4753 40.868C80.2013 40.868 79.3613 41.708 79.1933 43.038H83.5893C83.5893 41.736 82.7493 40.868 81.4753 40.868ZM87.3501 47L85.1101 40.224H86.1041L87.4341 44.312C87.5881 44.76 87.7141 45.222 87.8541 45.768C87.9661 45.222 88.1901 44.536 88.2601 44.312L89.6041 40.224H90.5981L91.9281 44.312C92.0541 44.676 92.2221 45.264 92.3481 45.768C92.4881 45.208 92.5161 45.04 92.7541 44.312L94.0981 40.224H95.1061L92.8101 47H91.8721L90.4721 42.744C90.3041 42.24 90.1921 41.82 90.1081 41.414C90.0101 41.778 89.8981 42.184 89.7161 42.744L88.3161 47H87.3501ZM102.142 47.168C100.7 47.168 99.8455 46.356 99.8455 45.166C99.8455 43.92 100.798 43.136 102.38 43.01L104.62 42.828V42.604C104.62 41.274 103.822 40.854 102.828 40.854C101.652 40.854 100.952 41.386 100.952 42.296H100.07C100.07 40.924 101.19 40.042 102.856 40.042C104.424 40.042 105.572 40.826 105.572 42.618V47H104.76L104.634 45.81C104.214 46.664 103.29 47.168 102.142 47.168ZM102.366 46.384C103.794 46.384 104.62 45.39 104.62 43.92V43.556L102.618 43.71C101.344 43.822 100.826 44.382 100.826 45.138C100.826 45.964 101.442 46.384 102.366 46.384ZM108.476 47H107.51V40.224H108.35L108.49 41.4C108.938 40.532 109.834 40.042 110.814 40.042C112.676 40.042 113.446 41.148 113.446 42.856V47H112.48V43.066C112.48 41.484 111.766 40.924 110.646 40.924C109.26 40.924 108.476 41.932 108.476 43.458V47ZM118.031 47.168C116.057 47.168 114.895 45.656 114.895 43.626C114.895 41.582 116.057 40.042 118.073 40.042C119.193 40.042 120.089 40.532 120.565 41.512V36.794H121.531V47H120.691L120.593 45.614C120.117 46.664 119.165 47.168 118.031 47.168ZM118.199 46.286C119.683 46.286 120.551 45.166 120.551 43.598C120.551 42.044 119.683 40.91 118.199 40.91C116.729 40.91 115.875 42.044 115.875 43.598C115.875 45.166 116.729 46.286 118.199 46.286ZM130.272 47.168C128.284 47.168 126.954 45.74 126.954 43.612C126.954 41.498 128.27 40.042 130.202 40.042C132.036 40.042 133.282 41.344 133.282 43.262V43.738H127.892C127.962 45.39 128.83 46.342 130.286 46.342C131.392 46.342 132.106 45.866 132.358 44.97H133.282C132.918 46.398 131.868 47.168 130.272 47.168ZM130.202 40.868C128.928 40.868 128.088 41.708 127.92 43.038H132.316C132.316 41.736 131.476 40.868 130.202 40.868ZM137.486 47.168C135.512 47.168 134.35 45.656 134.35 43.626C134.35 41.582 135.512 40.042 137.528 40.042C138.648 40.042 139.544 40.532 140.02 41.512V36.794H140.986V47H140.146L140.048 45.614C139.572 46.664 138.62 47.168 137.486 47.168ZM137.654 46.286C139.138 46.286 140.006 45.166 140.006 43.598C140.006 42.044 139.138 40.91 137.654 40.91C136.184 40.91 135.33 42.044 135.33 43.598C135.33 45.166 136.184 46.286 137.654 46.286ZM143.478 38.362C143.086 38.362 142.764 38.04 142.764 37.648C142.764 37.256 143.086 36.92 143.478 36.92C143.87 36.92 144.206 37.256 144.206 37.648C144.206 38.04 143.87 38.362 143.478 38.362ZM143.002 47V40.224H143.968V47H143.002ZM147.537 47H146.585V41.036H145.227V40.224H146.585V38.082H147.537V40.224H148.895V41.036H147.537V47ZM153.559 43.626C153.559 41.498 154.861 40.042 156.835 40.042C158.403 40.042 159.551 40.952 159.817 42.352H158.851C158.599 41.414 157.787 40.896 156.849 40.896C155.477 40.896 154.511 41.946 154.511 43.612C154.511 45.222 155.407 46.3 156.779 46.3C157.787 46.3 158.599 45.74 158.865 44.872H159.845C159.523 46.258 158.319 47.168 156.779 47.168C154.861 47.168 153.559 45.754 153.559 43.626ZM163.255 47.168C161.813 47.168 160.959 46.356 160.959 45.166C160.959 43.92 161.911 43.136 163.493 43.01L165.733 42.828V42.604C165.733 41.274 164.935 40.854 163.941 40.854C162.765 40.854 162.065 41.386 162.065 42.296H161.183C161.183 40.924 162.303 40.042 163.969 40.042C165.537 40.042 166.685 40.826 166.685 42.618V47H165.873L165.747 45.81C165.327 46.664 164.403 47.168 163.255 47.168ZM163.479 46.384C164.907 46.384 165.733 45.39 165.733 43.92V43.556L163.731 43.71C162.457 43.822 161.939 44.382 161.939 45.138C161.939 45.964 162.555 46.384 163.479 46.384ZM172.165 40.14V41.008H171.633C170.387 41.008 169.589 41.848 169.589 43.136V47H168.623V40.224H169.533L169.603 41.274C169.869 40.546 170.583 40.07 171.535 40.07C171.745 40.07 171.927 40.084 172.165 40.14ZM175.85 47.168C173.876 47.168 172.714 45.656 172.714 43.626C172.714 41.582 173.876 40.042 175.892 40.042C177.012 40.042 177.908 40.532 178.384 41.512V36.794H179.35V47H178.51L178.412 45.614C177.936 46.664 176.984 47.168 175.85 47.168ZM176.018 46.286C177.502 46.286 178.37 45.166 178.37 43.598C178.37 42.044 177.502 40.91 176.018 40.91C174.548 40.91 173.694 42.044 173.694 43.598C173.694 45.166 174.548 46.286 176.018 46.286ZM185.248 49.954V40.224H186.088L186.186 41.596C186.662 40.546 187.614 40.042 188.748 40.042C190.708 40.042 191.884 41.54 191.884 43.584C191.884 45.628 190.75 47.168 188.748 47.168C187.6 47.168 186.69 46.678 186.214 45.698V49.954H185.248ZM186.228 43.612C186.228 45.166 187.096 46.3 188.58 46.3C190.05 46.3 190.904 45.166 190.904 43.612C190.904 42.044 190.05 40.924 188.58 40.924C187.096 40.924 186.228 42.044 186.228 43.612ZM196.966 40.14V41.008H196.434C195.188 41.008 194.39 41.848 194.39 43.136V47H193.424V40.224H194.334L194.404 41.274C194.67 40.546 195.384 40.07 196.336 40.07C196.546 40.07 196.728 40.084 196.966 40.14ZM197.514 43.612C197.514 41.54 198.97 40.042 200.958 40.042C202.946 40.042 204.402 41.54 204.402 43.612C204.402 45.67 202.946 47.168 200.958 47.168C198.97 47.168 197.514 45.67 197.514 43.612ZM198.494 43.598C198.494 45.194 199.502 46.3 200.958 46.3C202.4 46.3 203.422 45.194 203.422 43.598C203.422 42.03 202.4 40.91 200.958 40.91C199.502 40.91 198.494 42.03 198.494 43.598ZM210.359 47V41.036H207.139V47H206.173V41.036H205.137V40.224H206.173V38.908C206.173 37.382 206.999 36.794 208.007 36.794C208.245 36.794 208.539 36.808 208.763 36.85V37.69H208.175C207.363 37.69 207.139 38.11 207.139 38.908V40.224H211.325V47H210.359ZM210.835 38.292C210.443 38.292 210.163 38.012 210.163 37.62C210.163 37.228 210.443 36.934 210.835 36.934C211.213 36.934 211.507 37.228 211.507 37.62C211.507 38.012 211.213 38.292 210.835 38.292ZM214.311 47H213.345V36.794H214.311V47ZM219.207 47.168C217.219 47.168 215.889 45.74 215.889 43.612C215.889 41.498 217.205 40.042 219.137 40.042C220.971 40.042 222.217 41.344 222.217 43.262V43.738H216.827C216.897 45.39 217.765 46.342 219.221 46.342C220.327 46.342 221.041 45.866 221.293 44.97H222.217C221.853 46.398 220.803 47.168 219.207 47.168ZM219.137 40.868C217.863 40.868 217.023 41.708 216.855 43.038H221.251C221.251 41.736 220.411 40.868 219.137 40.868ZM223.188 45.096H224.112C224.112 45.88 224.7 46.37 225.652 46.37C226.702 46.37 227.318 45.922 227.318 45.194C227.318 44.634 227.038 44.312 226.24 44.116L225.078 43.822C223.902 43.528 223.328 42.912 223.328 41.988C223.328 40.798 224.322 40.042 225.778 40.042C227.206 40.042 228.13 40.826 228.172 42.086H227.234C227.206 41.302 226.66 40.84 225.75 40.84C224.798 40.84 224.266 41.246 224.266 41.974C224.266 42.492 224.63 42.856 225.372 43.038L226.534 43.332C227.71 43.626 228.242 44.172 228.242 45.152C228.242 46.37 227.206 47.168 225.666 47.168C224.14 47.168 223.188 46.356 223.188 45.096ZM234.681 46.986H233.715V36.794H234.681V41.4C235.115 40.588 235.941 40.042 237.075 40.042C238.853 40.042 239.651 41.148 239.651 42.856V47H238.685V43.066C238.685 41.484 237.943 40.924 236.893 40.924C235.437 40.924 234.681 42.002 234.681 43.304V46.986ZM244.418 47.168C242.43 47.168 241.1 45.74 241.1 43.612C241.1 41.498 242.416 40.042 244.348 40.042C246.182 40.042 247.428 41.344 247.428 43.262V43.738H242.038C242.108 45.39 242.976 46.342 244.432 46.342C245.538 46.342 246.252 45.866 246.504 44.97H247.428C247.064 46.398 246.014 47.168 244.418 47.168ZM244.348 40.868C243.074 40.868 242.234 41.708 242.066 43.038H246.462C246.462 41.736 245.622 40.868 244.348 40.868ZM252.515 40.14V41.008H251.983C250.737 41.008 249.939 41.848 249.939 43.136V47H248.973V40.224H249.883L249.953 41.274C250.219 40.546 250.933 40.07 251.885 40.07C252.095 40.07 252.277 40.084 252.515 40.14ZM256.381 47.168C254.393 47.168 253.063 45.74 253.063 43.612C253.063 41.498 254.379 40.042 256.311 40.042C258.145 40.042 259.391 41.344 259.391 43.262V43.738H254.001C254.071 45.39 254.939 46.342 256.395 46.342C257.501 46.342 258.215 45.866 258.467 44.97H259.391C259.027 46.398 257.977 47.168 256.381 47.168ZM256.311 40.868C255.037 40.868 254.197 41.708 254.029 43.038H258.425C258.425 41.736 257.585 40.868 256.311 40.868ZM261.338 47.154C260.862 47.154 260.456 46.762 260.456 46.3C260.456 45.824 260.862 45.418 261.338 45.418C261.814 45.418 262.22 45.824 262.22 46.3C262.22 46.762 261.814 47.154 261.338 47.154Z" fill="#475467"/>
<path fill-rule="evenodd" clip-rule="evenodd" d="M1190 63.5H20V63H1190V63.5Z" fill="#98A2B3"/>
<g filter="url(#filter0_d_102_6012)">
<rect x="20" y="73.5" width="320" height="40" rx="8" fill="white"/>
<rect x="20.5" y="74" width="319" height="39" rx="7.5" stroke="#D0D5DD"/>
<path d="M51.5 101L46.5001 96M48.1667 91.8333C48.1667 95.055 45.555 97.6667 42.3333 97.6667C39.1117 97.6667 36.5 95.055 36.5 91.8333C36.5 88.6117 39.1117 86 42.3333 86C45.555 86 48.1667 88.6117 48.1667 91.8333Z" stroke="#808080" stroke-width="1.66667" stroke-linecap="round" stroke-linejoin="round"/>
<path d="M62.528 92.14C62.528 90.7 63.68 89.752 65.408 89.752C66.956 89.752 67.976 90.616 68.108 92.056H67.232C67.136 91.084 66.476 90.532 65.396 90.532C64.184 90.532 63.392 91.156 63.392 92.128C63.392 92.884 63.836 93.364 64.736 93.592L66.212 93.952C67.556 94.276 68.252 95.044 68.252 96.208C68.252 97.696 67.1 98.644 65.324 98.644C63.656 98.644 62.528 97.768 62.42 96.364H63.308C63.356 97.264 64.148 97.852 65.324 97.852C66.584 97.852 67.388 97.24 67.388 96.256C67.388 95.488 66.956 94.984 66.032 94.768L64.58 94.408C63.236 94.084 62.528 93.316 62.528 92.14ZM72.0617 98.644C70.3577 98.644 69.2177 97.42 69.2177 95.596C69.2177 93.784 70.3457 92.536 72.0017 92.536C73.5737 92.536 74.6417 93.652 74.6417 95.296V95.704H70.0217C70.0817 97.12 70.8257 97.936 72.0737 97.936C73.0217 97.936 73.6337 97.528 73.8497 96.76H74.6417C74.3297 97.984 73.4297 98.644 72.0617 98.644ZM72.0017 93.244C70.9097 93.244 70.1897 93.964 70.0457 95.104H73.8137C73.8137 93.988 73.0937 93.244 72.0017 93.244ZM77.575 98.644C76.339 98.644 75.607 97.948 75.607 96.928C75.607 95.86 76.423 95.188 77.779 95.08L79.699 94.924V94.732C79.699 93.592 79.015 93.232 78.163 93.232C77.155 93.232 76.555 93.688 76.555 94.468H75.799C75.799 93.292 76.759 92.536 78.187 92.536C79.531 92.536 80.515 93.208 80.515 94.744V98.5H79.819L79.711 97.48C79.351 98.212 78.559 98.644 77.575 98.644ZM77.767 97.972C78.991 97.972 79.699 97.12 79.699 95.86V95.548L77.983 95.68C76.891 95.776 76.447 96.256 76.447 96.904C76.447 97.612 76.975 97.972 77.767 97.972ZM85.2125 92.62V93.364H84.7565C83.6885 93.364 83.0045 94.084 83.0045 95.188V98.5H82.1765V92.692H82.9565L83.0165 93.592C83.2445 92.968 83.8565 92.56 84.6725 92.56C84.8525 92.56 85.0085 92.572 85.2125 92.62ZM85.6826 95.608C85.6826 93.784 86.7986 92.536 88.4906 92.536C89.8346 92.536 90.8186 93.316 91.0466 94.516H90.2186C90.0026 93.712 89.3066 93.268 88.5026 93.268C87.3266 93.268 86.4986 94.168 86.4986 95.596C86.4986 96.976 87.2666 97.9 88.4426 97.9C89.3066 97.9 90.0026 97.42 90.2306 96.676H91.0706C90.7946 97.864 89.7626 98.644 88.4426 98.644C86.7986 98.644 85.6826 97.432 85.6826 95.608ZM93.1529 98.488H92.3249V89.752H93.1529V93.7C93.5249 93.004 94.2329 92.536 95.2049 92.536C96.7289 92.536 97.4129 93.484 97.4129 94.948V98.5H96.5849V95.128C96.5849 93.772 95.9489 93.292 95.0489 93.292C93.8009 93.292 93.1529 94.216 93.1529 95.332V98.488ZM103.111 98.5H102.391V89.752H103.219V93.82C103.627 92.968 104.419 92.536 105.403 92.536C107.095 92.536 108.079 93.856 108.079 95.608C108.079 97.348 107.071 98.644 105.379 98.644C104.407 98.644 103.603 98.212 103.195 97.312L103.111 98.5ZM103.231 95.584C103.231 96.928 103.975 97.888 105.247 97.888C106.507 97.888 107.239 96.928 107.239 95.584C107.239 94.252 106.507 93.28 105.247 93.28C103.975 93.28 103.231 94.252 103.231 95.584ZM108.624 101.032V100.348H109.26C109.764 100.348 110.268 100.312 110.556 99.532L110.808 98.848L108.456 92.692H109.332L111.204 97.756L113.04 92.692H113.892L111.228 99.832C110.892 100.744 110.328 101.116 109.5 101.116C109.152 101.116 108.888 101.092 108.624 101.032ZM117.78 95.608C117.78 93.784 118.896 92.536 120.588 92.536C121.932 92.536 122.916 93.316 123.144 94.516H122.316C122.1 93.712 121.404 93.268 120.6 93.268C119.424 93.268 118.596 94.168 118.596 95.596C118.596 96.976 119.364 97.9 120.54 97.9C121.404 97.9 122.1 97.42 122.328 96.676H123.168C122.892 97.864 121.86 98.644 120.54 98.644C118.896 98.644 117.78 97.432 117.78 95.608ZM126.091 98.644C124.855 98.644 124.123 97.948 124.123 96.928C124.123 95.86 124.939 95.188 126.295 95.08L128.215 94.924V94.732C128.215 93.592 127.531 93.232 126.679 93.232C125.671 93.232 125.071 93.688 125.071 94.468H124.315C124.315 93.292 125.275 92.536 126.703 92.536C128.047 92.536 129.031 93.208 129.031 94.744V98.5H128.335L128.227 97.48C127.867 98.212 127.075 98.644 126.091 98.644ZM126.283 97.972C127.507 97.972 128.215 97.12 128.215 95.86V95.548L126.499 95.68C125.407 95.776 124.963 96.256 124.963 96.904C124.963 97.612 125.491 97.972 126.283 97.972ZM133.728 92.62V93.364H133.272C132.204 93.364 131.52 94.084 131.52 95.188V98.5H130.692V92.692H131.472L131.532 93.592C131.76 92.968 132.372 92.56 133.188 92.56C133.368 92.56 133.524 92.572 133.728 92.62ZM136.886 98.644C135.194 98.644 134.198 97.348 134.198 95.608C134.198 93.856 135.194 92.536 136.922 92.536C137.882 92.536 138.65 92.956 139.058 93.796V89.752H139.886V98.5H139.166L139.082 97.312C138.674 98.212 137.858 98.644 136.886 98.644ZM137.03 97.888C138.302 97.888 139.046 96.928 139.046 95.584C139.046 94.252 138.302 93.28 137.03 93.28C135.77 93.28 135.038 94.252 135.038 95.584C135.038 96.928 135.77 97.888 137.03 97.888ZM145.77 98.5H144.942V92.692H145.662L145.782 93.7C146.166 92.956 146.934 92.536 147.774 92.536C149.37 92.536 150.03 93.484 150.03 94.948V98.5H149.202V95.128C149.202 93.772 148.59 93.292 147.63 93.292C146.442 93.292 145.77 94.156 145.77 95.464V98.5ZM153.348 98.644C152.112 98.644 151.38 97.948 151.38 96.928C151.38 95.86 152.196 95.188 153.552 95.08L155.472 94.924V94.732C155.472 93.592 154.788 93.232 153.936 93.232C152.928 93.232 152.328 93.688 152.328 94.468H151.572C151.572 93.292 152.532 92.536 153.96 92.536C155.304 92.536 156.288 93.208 156.288 94.744V98.5H155.592L155.484 97.48C155.124 98.212 154.332 98.644 153.348 98.644ZM153.54 97.972C154.764 97.972 155.472 97.12 155.472 95.86V95.548L153.756 95.68C152.664 95.776 152.22 96.256 152.22 96.904C152.22 97.612 152.748 97.972 153.54 97.972ZM158.778 98.5H157.95V92.692H158.67L158.766 93.52C159.054 92.908 159.702 92.536 160.518 92.536C161.43 92.536 162.114 93.016 162.39 93.772C162.654 93.016 163.362 92.536 164.298 92.536C165.558 92.536 166.386 93.352 166.386 94.696V98.5H165.582V94.864C165.582 93.868 165.03 93.28 164.142 93.28C163.17 93.28 162.594 94.012 162.594 94.912V98.5H161.778V94.852C161.778 93.868 161.214 93.292 160.338 93.292C159.366 93.292 158.778 94.012 158.778 94.9V98.5ZM170.488 98.644C168.784 98.644 167.644 97.42 167.644 95.596C167.644 93.784 168.771 92.536 170.428 92.536C172 92.536 173.068 93.652 173.068 95.296V95.704H168.448C168.508 97.12 169.252 97.936 170.5 97.936C171.448 97.936 172.06 97.528 172.276 96.76H173.068C172.756 97.984 171.856 98.644 170.488 98.644ZM170.428 93.244C169.336 93.244 168.616 93.964 168.472 95.104H172.24C172.24 93.988 171.52 93.244 170.428 93.244Z" fill="#808080"/>
</g>
<rect x="1073" y="75.5" width="117" height="36" rx="4" fill="#014DAF"/>
<path d="M1097 87.667V99.3337M1091.17 93.5003H1102.83" stroke="white" stroke-width="1.66667" stroke-linecap="round" stroke-linejoin="round"/>
<path d="M1116.37 98.5H1115.14L1118.31 89.824H1119.62L1122.8 98.5H1121.56L1120.78 96.34H1117.14L1116.37 98.5ZM1118.82 91.696L1117.5 95.32H1120.44L1119.1 91.696C1119.04 91.528 1118.98 91.324 1118.96 91.192C1118.94 91.312 1118.88 91.516 1118.82 91.696ZM1125.89 98.644C1124.19 98.644 1123.15 97.372 1123.15 95.584C1123.15 93.784 1124.2 92.464 1125.94 92.464C1126.84 92.464 1127.59 92.86 1127.99 93.58V89.668H1129.11V98.5H1128.1L1128 97.432C1127.62 98.236 1126.83 98.644 1125.89 98.644ZM1126.12 97.624C1127.27 97.624 1127.98 96.772 1127.98 95.548C1127.98 94.348 1127.27 93.484 1126.12 93.484C1124.97 93.484 1124.29 94.348 1124.29 95.548C1124.29 96.76 1124.97 97.624 1126.12 97.624ZM1133.09 98.644C1131.38 98.644 1130.35 97.372 1130.35 95.584C1130.35 93.784 1131.39 92.464 1133.13 92.464C1134.03 92.464 1134.79 92.86 1135.19 93.58V89.668H1136.3V98.5H1135.29L1135.2 97.432C1134.81 98.236 1134.02 98.644 1133.09 98.644ZM1133.31 97.624C1134.47 97.624 1135.17 96.772 1135.17 95.548C1135.17 94.348 1134.47 93.484 1133.31 93.484C1132.16 93.484 1131.49 94.348 1131.49 95.548C1131.49 96.76 1132.16 97.624 1133.31 97.624ZM1144.77 95.404H1142.58V98.5H1141.4V89.824H1144.77C1146.48 89.824 1147.57 90.94 1147.57 92.608C1147.57 94.228 1146.47 95.404 1144.77 95.404ZM1144.57 90.88H1142.58V94.348H1144.52C1145.69 94.348 1146.33 93.664 1146.33 92.596C1146.33 91.504 1145.67 90.88 1144.57 90.88ZM1152.07 92.584V93.616H1151.57C1150.5 93.616 1149.84 94.264 1149.84 95.392V98.5H1148.71V92.644H1149.77L1149.84 93.532C1150.08 92.92 1150.67 92.512 1151.47 92.512C1151.67 92.512 1151.84 92.536 1152.07 92.584ZM1152.53 95.56C1152.53 93.748 1153.83 92.476 1155.59 92.476C1157.35 92.476 1158.64 93.748 1158.64 95.56C1158.64 97.372 1157.35 98.644 1155.59 98.644C1153.83 98.644 1152.53 97.372 1152.53 95.56ZM1153.67 95.56C1153.67 96.784 1154.45 97.636 1155.59 97.636C1156.72 97.636 1157.51 96.784 1157.51 95.56C1157.51 94.336 1156.72 93.484 1155.59 93.484C1154.45 93.484 1153.67 94.336 1153.67 95.56ZM1163.83 98.5V93.58H1161.22V98.5H1160.1V93.58H1159.23V92.632H1160.1V91.696C1160.1 90.256 1160.88 89.668 1161.9 89.668C1162.11 89.668 1162.38 89.68 1162.59 89.716V90.688H1162.09C1161.4 90.688 1161.22 91.06 1161.22 91.696V92.632H1164.96V98.5H1163.83ZM1164.39 91.192C1163.98 91.192 1163.67 90.88 1163.67 90.472C1163.67 90.064 1163.98 89.752 1164.39 89.752C1164.79 89.752 1165.1 90.064 1165.1 90.472C1165.1 90.88 1164.79 91.192 1164.39 91.192ZM1167.71 98.5H1166.58V89.668H1167.71V98.5ZM1171.9 98.644C1170.17 98.644 1168.99 97.396 1168.99 95.572C1168.99 93.736 1170.15 92.464 1171.85 92.464C1173.52 92.464 1174.61 93.616 1174.61 95.356V95.776L1170.08 95.788C1170.16 97.024 1170.81 97.708 1171.93 97.708C1172.8 97.708 1173.38 97.348 1173.57 96.676H1174.63C1174.34 97.936 1173.35 98.644 1171.9 98.644ZM1171.85 93.412C1170.87 93.412 1170.25 94 1170.1 95.032H1173.49C1173.49 94.06 1172.85 93.412 1171.85 93.412Z" fill="white"/>
<path fill-rule="evenodd" clip-rule="evenodd" d="M1190 124H20V123.5H1190V124Z" fill="#98A2B3"/>
<g clip-path="url(#clip0_102_6012)">
<rect x="20" y="134" width="195" height="34" fill="#F9FAFB"/>
<rect x="20" y="134" width="195" height="34" stroke="#EAECF0"/>
<path d="M48.608 156.132C46.136 156.132 44.492 154.356 44.492 151.668C44.492 148.992 46.184 147.18 48.668 147.18C50.624 147.18 52.124 148.344 52.448 150.12H51.188C50.864 148.992 49.892 148.308 48.632 148.308C46.88 148.308 45.728 149.628 45.728 151.656C45.728 153.684 46.88 155.004 48.632 155.004C49.904 155.004 50.912 154.32 51.236 153.252H52.484C52.112 154.98 50.564 156.132 48.608 156.132ZM55.3328 156.144C54.0728 156.144 53.3288 155.436 53.3288 154.368C53.3288 153.288 54.1328 152.616 55.5128 152.508L57.3608 152.364V152.196C57.3608 151.212 56.7728 150.864 55.9808 150.864C55.0328 150.864 54.4928 151.284 54.4928 151.992H53.5088C53.5088 150.768 54.5168 149.964 56.0288 149.964C57.4808 149.964 58.4648 150.732 58.4648 152.316V156H57.5048L57.3848 155.052C57.0848 155.724 56.2808 156.144 55.3328 156.144ZM55.6568 155.268C56.7248 155.268 57.3728 154.572 57.3728 153.468V153.156L55.8728 153.276C54.8768 153.372 54.4688 153.756 54.4688 154.332C54.4688 154.956 54.9248 155.268 55.6568 155.268ZM63.3869 150.084V151.116H62.8829C61.8149 151.116 61.1549 151.764 61.1549 152.892V156H60.0269V150.144H61.0829L61.1549 151.032C61.3949 150.42 61.9829 150.012 62.7869 150.012C62.9909 150.012 63.1589 150.036 63.3869 150.084ZM66.586 156.144C64.882 156.144 63.85 154.872 63.85 153.084C63.85 151.284 64.894 149.964 66.634 149.964C67.534 149.964 68.29 150.36 68.686 151.08V147.168H69.802V156H68.794L68.698 154.932C68.314 155.736 67.522 156.144 66.586 156.144ZM66.814 155.124C67.966 155.124 68.674 154.272 68.674 153.048C68.674 151.848 67.966 150.984 66.814 150.984C65.662 150.984 64.99 151.848 64.99 153.048C64.99 154.26 65.662 155.124 66.814 155.124ZM76.0785 156H74.9025V147.324H76.0785L80.5185 154.032V147.324H81.6945V156H80.5185L76.0785 149.292V156ZM85.239 156.144C83.979 156.144 83.235 155.436 83.235 154.368C83.235 153.288 84.039 152.616 85.419 152.508L87.267 152.364V152.196C87.267 151.212 86.679 150.864 85.887 150.864C84.939 150.864 84.399 151.284 84.399 151.992H83.415C83.415 150.768 84.423 149.964 85.935 149.964C87.387 149.964 88.371 150.732 88.371 152.316V156H87.411L87.291 155.052C86.991 155.724 86.187 156.144 85.239 156.144ZM85.563 155.268C86.631 155.268 87.279 154.572 87.279 153.468V153.156L85.779 153.276C84.783 153.372 84.375 153.756 84.375 154.332C84.375 154.956 84.831 155.268 85.563 155.268ZM91.0612 156H89.9332V150.132H90.9412L91.0492 150.9C91.3492 150.348 91.9732 149.964 92.8012 149.964C93.7132 149.964 94.3612 150.42 94.6612 151.152C94.9372 150.42 95.6452 149.964 96.5572 149.964C97.9012 149.964 98.7172 150.804 98.7172 152.16V156H97.6132V152.436C97.6132 151.512 97.0972 150.984 96.3052 150.984C95.4532 150.984 94.8892 151.584 94.8892 152.52V156H93.7732V152.424C93.7732 151.5 93.2692 150.996 92.4772 150.996C91.6252 150.996 91.0612 151.584 91.0612 152.52V156ZM102.813 156.144C101.085 156.144 99.8968 154.896 99.8968 153.072C99.8968 151.236 101.061 149.964 102.765 149.964C104.433 149.964 105.525 151.116 105.525 152.856V153.276L100.989 153.288C101.073 154.524 101.721 155.208 102.837 155.208C103.713 155.208 104.289 154.848 104.481 154.176H105.537C105.249 155.436 104.265 156.144 102.813 156.144ZM102.765 150.912C101.781 150.912 101.157 151.5 101.013 152.532H104.397C104.397 151.56 103.761 150.912 102.765 150.912Z" fill="#475467"/>
<path d="M215 134H410V168H215V134Z" fill="#F9FAFB"/>
<path d="M215 134H410V168H215V134Z" stroke="#EAECF0"/>
<path d="M291.608 156.132C289.136 156.132 287.492 154.356 287.492 151.668C287.492 148.992 289.184 147.18 291.668 147.18C293.624 147.18 295.124 148.344 295.448 150.12H294.188C293.864 148.992 292.892 148.308 291.632 148.308C289.88 148.308 288.728 149.628 288.728 151.656C288.728 153.684 289.88 155.004 291.632 155.004C292.904 155.004 293.912 154.32 294.236 153.252H295.484C295.112 154.98 293.564 156.132 291.608 156.132ZM300.79 150.132H301.906V156H300.898L300.778 155.112C300.442 155.724 299.662 156.144 298.798 156.144C297.43 156.144 296.662 155.22 296.662 153.78V150.132H297.79V153.408C297.79 154.668 298.33 155.148 299.194 155.148C300.226 155.148 300.79 154.488 300.79 153.228V150.132ZM306.903 150.084V151.116H306.399C305.331 151.116 304.671 151.764 304.671 152.892V156H303.543V150.144H304.599L304.671 151.032C304.911 150.42 305.499 150.012 306.303 150.012C306.507 150.012 306.675 150.036 306.903 150.084ZM311.321 150.084V151.116H310.817C309.749 151.116 309.089 151.764 309.089 152.892V156H307.961V150.144H309.017L309.089 151.032C309.329 150.42 309.917 150.012 310.721 150.012C310.925 150.012 311.093 150.036 311.321 150.084ZM314.7 156.144C312.972 156.144 311.784 154.896 311.784 153.072C311.784 151.236 312.948 149.964 314.652 149.964C316.32 149.964 317.412 151.116 317.412 152.856V153.276L312.876 153.288C312.96 154.524 313.608 155.208 314.724 155.208C315.6 155.208 316.176 154.848 316.368 154.176H317.424C317.136 155.436 316.152 156.144 314.7 156.144ZM314.652 150.912C313.668 150.912 313.044 151.5 312.9 152.532H316.284C316.284 151.56 315.648 150.912 314.652 150.912ZM319.799 156H318.671V150.132H319.691L319.811 151.032C320.183 150.36 320.927 149.964 321.755 149.964C323.303 149.964 324.011 150.912 324.011 152.412V156H322.883V152.664C322.883 151.476 322.331 150.996 321.467 150.996C320.411 150.996 319.799 151.752 319.799 152.892V156ZM325.19 153.072C325.19 151.236 326.354 149.964 328.07 149.964C329.546 149.964 330.578 150.804 330.782 152.112H329.654C329.462 151.368 328.862 150.972 328.106 150.972C327.038 150.972 326.306 151.788 326.306 153.06C326.306 154.32 326.99 155.136 328.058 155.136C328.862 155.136 329.462 154.716 329.666 154.02H330.794C330.566 155.292 329.474 156.144 328.058 156.144C326.33 156.144 325.19 154.92 325.19 153.072ZM331.303 158.628V157.704H332.059C332.599 157.704 333.031 157.62 333.307 156.876L333.511 156.312L331.147 150.132H332.335L334.039 154.86L335.779 150.132H336.943L334.171 157.32C333.775 158.328 333.187 158.748 332.287 158.748C331.915 158.748 331.603 158.7 331.303 158.628Z" fill="#475467"/>
<path d="M410 134H605V168H410V134Z" fill="#F9FAFB"/>
<path d="M410 134H605V168H410V134Z" stroke="#EAECF0"/>
<path d="M486.8 156H481.508V147.324H486.8V148.404H482.684V151.116H486.392V152.16H482.684V154.908H486.8V156ZM488.912 156H487.616L489.668 153.096L487.628 150.132H488.936L490.424 152.316L491.876 150.132H493.16L491.12 153.096L493.124 156H491.816L490.352 153.852L488.912 156ZM494.101 158.628V150.132H495.121L495.205 151.188C495.601 150.384 496.393 149.964 497.329 149.964C499.009 149.964 500.053 151.224 500.053 153.024C500.053 154.812 499.069 156.156 497.329 156.156C496.393 156.156 495.613 155.76 495.229 155.04V158.628H494.101ZM495.241 153.072C495.241 154.272 495.937 155.136 497.089 155.136C498.241 155.136 498.925 154.272 498.925 153.072C498.925 151.86 498.241 150.996 497.089 150.996C495.937 150.996 495.241 151.848 495.241 153.072ZM501.848 148.74C501.44 148.74 501.104 148.404 501.104 147.996C501.104 147.576 501.44 147.252 501.848 147.252C502.256 147.252 502.592 147.576 502.592 147.996C502.592 148.404 502.256 148.74 501.848 148.74ZM501.296 156V150.132H502.424V156H501.296ZM507.422 150.084V151.116H506.918C505.85 151.116 505.19 151.764 505.19 152.892V156H504.062V150.144H505.118L505.19 151.032C505.43 150.42 506.018 150.012 506.822 150.012C507.026 150.012 507.194 150.036 507.422 150.084ZM509.962 156.144C508.702 156.144 507.958 155.436 507.958 154.368C507.958 153.288 508.762 152.616 510.142 152.508L511.99 152.364V152.196C511.99 151.212 511.402 150.864 510.61 150.864C509.662 150.864 509.122 151.284 509.122 151.992H508.138C508.138 150.768 509.146 149.964 510.658 149.964C512.11 149.964 513.094 150.732 513.094 152.316V156H512.134L512.014 155.052C511.714 155.724 510.91 156.144 509.962 156.144ZM510.286 155.268C511.354 155.268 512.002 154.572 512.002 153.468V153.156L510.502 153.276C509.506 153.372 509.098 153.756 509.098 154.332C509.098 154.956 509.554 155.268 510.286 155.268ZM516.218 156H515.09V151.08H513.938V150.132H515.09V148.296H516.218V150.132H517.37V151.08H516.218V156ZM518.934 148.74C518.526 148.74 518.19 148.404 518.19 147.996C518.19 147.576 518.526 147.252 518.934 147.252C519.342 147.252 519.678 147.576 519.678 147.996C519.678 148.404 519.342 148.74 518.934 148.74ZM518.382 156V150.132H519.51V156H518.382ZM520.764 153.06C520.764 151.248 522.06 149.976 523.824 149.976C525.576 149.976 526.872 151.248 526.872 153.06C526.872 154.872 525.576 156.144 523.824 156.144C522.06 156.144 520.764 154.872 520.764 153.06ZM521.904 153.06C521.904 154.284 522.684 155.136 523.824 155.136C524.952 155.136 525.744 154.284 525.744 153.06C525.744 151.836 524.952 150.984 523.824 150.984C522.684 150.984 521.904 151.836 521.904 153.06ZM529.249 156H528.121V150.132H529.141L529.261 151.032C529.633 150.36 530.377 149.964 531.205 149.964C532.753 149.964 533.461 150.912 533.461 152.412V156H532.333V152.664C532.333 151.476 531.781 150.996 530.917 150.996C529.861 150.996 529.249 151.752 529.249 152.892V156Z" fill="#475467"/>
<path d="M605 134H800V168H605V134Z" fill="#F9FAFB"/>
<path d="M605 134H800V168H605V134Z" stroke="#EAECF0"/>
<path d="M677.508 156V147.324H680.82C682.512 147.324 683.544 148.188 683.544 149.616C683.544 150.612 683.112 151.284 682.248 151.644C683.208 151.956 683.7 152.652 683.7 153.684C683.7 155.124 682.656 156 680.94 156H677.508ZM680.748 148.368H678.684V151.152H680.82C681.792 151.152 682.344 150.624 682.344 149.724C682.344 148.86 681.768 148.368 680.748 148.368ZM680.916 152.172H678.684V154.956H680.916C681.924 154.956 682.488 154.44 682.488 153.54C682.488 152.676 681.912 152.172 680.916 152.172ZM685.532 148.74C685.124 148.74 684.788 148.404 684.788 147.996C684.788 147.576 685.124 147.252 685.532 147.252C685.94 147.252 686.276 147.576 686.276 147.996C686.276 148.404 685.94 148.74 685.532 148.74ZM684.98 156V150.132H686.108V156H684.98ZM688.874 156H687.746V150.132H688.766L688.886 151.032C689.258 150.36 690.002 149.964 690.83 149.964C692.378 149.964 693.086 150.912 693.086 152.412V156H691.958V152.664C691.958 151.476 691.406 150.996 690.542 150.996C689.486 150.996 688.874 151.752 688.874 152.892V156ZM701.493 152.904H699.297V156H698.121V147.324H701.493C703.197 147.324 704.289 148.44 704.289 150.108C704.289 151.728 703.185 152.904 701.493 152.904ZM701.289 148.38H699.297V151.848H701.241C702.405 151.848 703.053 151.164 703.053 150.096C703.053 149.004 702.393 148.38 701.289 148.38ZM708.789 150.084V151.116H708.285C707.217 151.116 706.557 151.764 706.557 152.892V156H705.429V150.144H706.485L706.557 151.032C706.797 150.42 707.385 150.012 708.189 150.012C708.393 150.012 708.561 150.036 708.789 150.084ZM712.168 156.144C710.44 156.144 709.252 154.896 709.252 153.072C709.252 151.236 710.416 149.964 712.12 149.964C713.788 149.964 714.88 151.116 714.88 152.856V153.276L710.344 153.288C710.428 154.524 711.076 155.208 712.192 155.208C713.068 155.208 713.644 154.848 713.836 154.176H714.892C714.604 155.436 713.62 156.144 712.168 156.144ZM712.12 150.912C711.136 150.912 710.512 151.5 710.368 152.532H713.752C713.752 151.56 713.116 150.912 712.12 150.912ZM720.112 156V151.08H717.508V156H716.38V151.08H715.516V150.132H716.38V149.196C716.38 147.756 717.16 147.168 718.18 147.168C718.396 147.168 718.66 147.18 718.876 147.216V148.188H718.372C717.688 148.188 717.508 148.56 717.508 149.196V150.132H721.24V156H720.112ZM720.676 148.692C720.268 148.692 719.956 148.38 719.956 147.972C719.956 147.564 720.268 147.252 720.676 147.252C721.072 147.252 721.384 147.564 721.384 147.972C721.384 148.38 721.072 148.692 720.676 148.692ZM723.443 156H722.147L724.199 153.096L722.159 150.132H723.467L724.955 152.316L726.407 150.132H727.691L725.651 153.096L727.655 156H726.347L724.883 153.852L723.443 156Z" fill="#475467"/>
<path d="M800 134H995V168H800V134Z" fill="#F9FAFB"/>
<path d="M800 134H995V168H800V134Z" stroke="#EAECF0"/>
<path d="M865.376 156H862.508V147.324H865.328C867.92 147.324 869.672 149.076 869.672 151.668C869.672 154.248 867.944 156 865.376 156ZM865.244 148.404H863.684V154.908H865.292C867.224 154.908 868.448 153.66 868.448 151.668C868.448 149.652 867.224 148.404 865.244 148.404ZM872.692 156.144C871.432 156.144 870.688 155.436 870.688 154.368C870.688 153.288 871.492 152.616 872.872 152.508L874.72 152.364V152.196C874.72 151.212 874.132 150.864 873.34 150.864C872.392 150.864 871.852 151.284 871.852 151.992H870.868C870.868 150.768 871.876 149.964 873.388 149.964C874.84 149.964 875.824 150.732 875.824 152.316V156H874.864L874.744 155.052C874.444 155.724 873.64 156.144 872.692 156.144ZM873.016 155.268C874.084 155.268 874.732 154.572 874.732 153.468V153.156L873.232 153.276C872.236 153.372 871.828 153.756 871.828 154.332C871.828 154.956 872.284 155.268 873.016 155.268ZM878.949 156H877.821V151.08H876.669V150.132H877.821V148.296H878.949V150.132H880.101V151.08H878.949V156ZM883.586 156.144C881.858 156.144 880.67 154.896 880.67 153.072C880.67 151.236 881.834 149.964 883.538 149.964C885.206 149.964 886.298 151.116 886.298 152.856V153.276L881.762 153.288C881.846 154.524 882.494 155.208 883.61 155.208C884.486 155.208 885.062 154.848 885.254 154.176H886.31C886.022 155.436 885.038 156.144 883.586 156.144ZM883.538 150.912C882.554 150.912 881.93 151.5 881.786 152.532H885.17C885.17 151.56 884.534 150.912 883.538 150.912ZM894.631 156.132C892.159 156.132 890.515 154.356 890.515 151.668C890.515 148.992 892.207 147.18 894.691 147.18C896.647 147.18 898.147 148.344 898.471 150.12H897.211C896.887 148.992 895.915 148.308 894.655 148.308C892.903 148.308 891.751 149.628 891.751 151.656C891.751 153.684 892.903 155.004 894.655 155.004C895.927 155.004 896.935 154.32 897.259 153.252H898.507C898.135 154.98 896.587 156.132 894.631 156.132ZM903.117 150.084V151.116H902.613C901.545 151.116 900.885 151.764 900.885 152.892V156H899.757V150.144H900.813L900.885 151.032C901.125 150.42 901.713 150.012 902.517 150.012C902.721 150.012 902.889 150.036 903.117 150.084ZM906.496 156.144C904.768 156.144 903.58 154.896 903.58 153.072C903.58 151.236 904.744 149.964 906.448 149.964C908.116 149.964 909.208 151.116 909.208 152.856V153.276L904.672 153.288C904.756 154.524 905.404 155.208 906.52 155.208C907.396 155.208 907.972 154.848 908.164 154.176H909.22C908.932 155.436 907.948 156.144 906.496 156.144ZM906.448 150.912C905.464 150.912 904.84 151.5 904.696 152.532H908.08C908.08 151.56 907.444 150.912 906.448 150.912ZM912.126 156.144C910.866 156.144 910.122 155.436 910.122 154.368C910.122 153.288 910.926 152.616 912.306 152.508L914.154 152.364V152.196C914.154 151.212 913.566 150.864 912.774 150.864C911.826 150.864 911.286 151.284 911.286 151.992H910.302C910.302 150.768 911.31 149.964 912.822 149.964C914.274 149.964 915.258 150.732 915.258 152.316V156H914.298L914.178 155.052C913.878 155.724 913.074 156.144 912.126 156.144ZM912.45 155.268C913.518 155.268 914.166 154.572 914.166 153.468V153.156L912.666 153.276C911.67 153.372 911.262 153.756 911.262 154.332C911.262 154.956 911.718 155.268 912.45 155.268ZM918.382 156H917.254V151.08H916.102V150.132H917.254V148.296H918.382V150.132H919.534V151.08H918.382V156ZM923.02 156.144C921.292 156.144 920.104 154.896 920.104 153.072C920.104 151.236 921.268 149.964 922.972 149.964C924.64 149.964 925.732 151.116 925.732 152.856V153.276L921.196 153.288C921.28 154.524 921.928 155.208 923.044 155.208C923.92 155.208 924.496 154.848 924.688 154.176H925.744C925.456 155.436 924.472 156.144 923.02 156.144ZM922.972 150.912C921.988 150.912 921.364 151.5 921.22 152.532H924.604C924.604 151.56 923.968 150.912 922.972 150.912ZM929.344 156.144C927.64 156.144 926.608 154.872 926.608 153.084C926.608 151.284 927.652 149.964 929.392 149.964C930.292 149.964 931.048 150.36 931.444 151.08V147.168H932.56V156H931.552L931.456 154.932C931.072 155.736 930.28 156.144 929.344 156.144ZM929.572 155.124C930.724 155.124 931.432 154.272 931.432 153.048C931.432 151.848 930.724 150.984 929.572 150.984C928.42 150.984 927.748 151.848 927.748 153.048C927.748 154.26 928.42 155.124 929.572 155.124Z" fill="#475467"/>
<path d="M995 134H1190V168H995V134Z" fill="#F9FAFB"/>
<path d="M995 134H1190V168H995V134Z" stroke="#EAECF0"/>
<path d="M1076.37 156H1075.14L1078.31 147.324H1079.62L1082.8 156H1081.56L1080.78 153.84H1077.14L1076.37 156ZM1078.82 149.196L1077.5 152.82H1080.44L1079.1 149.196C1079.04 149.028 1078.98 148.824 1078.96 148.692C1078.94 148.812 1078.88 149.016 1078.82 149.196ZM1083.15 153.072C1083.15 151.236 1084.32 149.964 1086.03 149.964C1087.51 149.964 1088.54 150.804 1088.75 152.112H1087.62C1087.43 151.368 1086.83 150.972 1086.07 150.972C1085 150.972 1084.27 151.788 1084.27 153.06C1084.27 154.32 1084.95 155.136 1086.02 155.136C1086.83 155.136 1087.43 154.716 1087.63 154.02H1088.76C1088.53 155.292 1087.44 156.144 1086.02 156.144C1084.29 156.144 1083.15 154.92 1083.15 153.072ZM1091.6 156H1090.48V151.08H1089.32V150.132H1090.48V148.296H1091.6V150.132H1092.76V151.08H1091.6V156ZM1094.32 148.74C1093.91 148.74 1093.58 148.404 1093.58 147.996C1093.58 147.576 1093.91 147.252 1094.32 147.252C1094.73 147.252 1095.07 147.576 1095.07 147.996C1095.07 148.404 1094.73 148.74 1094.32 148.74ZM1093.77 156V150.132H1094.9V156H1093.77ZM1096.15 153.06C1096.15 151.248 1097.45 149.976 1099.21 149.976C1100.96 149.976 1102.26 151.248 1102.26 153.06C1102.26 154.872 1100.96 156.144 1099.21 156.144C1097.45 156.144 1096.15 154.872 1096.15 153.06ZM1097.29 153.06C1097.29 154.284 1098.07 155.136 1099.21 155.136C1100.34 155.136 1101.13 154.284 1101.13 153.06C1101.13 151.836 1100.34 150.984 1099.21 150.984C1098.07 150.984 1097.29 151.836 1097.29 153.06ZM1104.64 156H1103.51V150.132H1104.53L1104.65 151.032C1105.02 150.36 1105.76 149.964 1106.59 149.964C1108.14 149.964 1108.85 150.912 1108.85 152.412V156H1107.72V152.664C1107.72 151.476 1107.17 150.996 1106.3 150.996C1105.25 150.996 1104.64 151.752 1104.64 152.892V156Z" fill="#475467"/>
<rect x="20" y="168" width="195" height="42" fill="white"/>
<rect x="20" y="168" width="195" height="42" stroke="#EAECF0"/>
<path d="M46.84 193L44.1 185.84H44.87L46.78 190.82C46.93 191.21 47.07 191.6 47.23 192.1C47.38 191.58 47.56 191.08 47.67 190.81L49.57 185.84H50.31L47.59 193H46.84ZM52.4141 193.12C50.9941 193.12 50.0441 192.1 50.0441 190.58C50.0441 189.07 50.9841 188.03 52.3641 188.03C53.6741 188.03 54.5641 188.96 54.5641 190.33V190.67H50.7141C50.7641 191.85 51.3841 192.53 52.4241 192.53C53.2141 192.53 53.7241 192.19 53.9041 191.55H54.5641C54.3041 192.57 53.5541 193.12 52.4141 193.12ZM52.3641 188.62C51.4541 188.62 50.8541 189.22 50.7341 190.17H53.8741C53.8741 189.24 53.2741 188.62 52.3641 188.62ZM58.1973 188.1V188.72H57.8173C56.9273 188.72 56.3573 189.32 56.3573 190.24V193H55.6673V188.16H56.3173L56.3673 188.91C56.5573 188.39 57.0673 188.05 57.7473 188.05C57.8973 188.05 58.0273 188.06 58.1973 188.1ZM60.611 193L58.631 188.16H59.371L60.621 191.28C60.751 191.63 60.881 191.96 60.971 192.28C61.061 191.95 61.191 191.63 61.331 191.28L62.601 188.16H63.311L61.301 193H60.611ZM65.9395 193.12C64.5195 193.12 63.5695 192.1 63.5695 190.58C63.5695 189.07 64.5095 188.03 65.8895 188.03C67.1995 188.03 68.0895 188.96 68.0895 190.33V190.67H64.2395C64.2895 191.85 64.9095 192.53 65.9495 192.53C66.7395 192.53 67.2495 192.19 67.4295 191.55H68.0895C67.8295 192.57 67.0795 193.12 65.9395 193.12ZM65.8895 188.62C64.9795 188.62 64.3795 189.22 64.2595 190.17H67.3995C67.3995 189.24 66.7995 188.62 65.8895 188.62ZM69.1127 190.68V190.06H72.0127V190.68H69.1127ZM73.9057 186.49H72.4457V185.84H74.5957V193H73.9057V186.49Z" fill="#475467"/>
<rect x="215" y="168" width="195" height="42" fill="white"/>
<rect x="215" y="168" width="195" height="42" stroke="#EAECF0"/>
<path d="M303.09 193H302.37V185.84H303.1L307.04 191.8V185.84H307.75V193H307.04L303.09 187.04V193ZM312.499 186.4C310.849 186.4 309.809 187.62 309.809 189.45C309.809 191.31 310.909 192.44 312.519 192.44C313.719 192.44 314.889 191.86 314.889 190.14V189.77H312.299V189.13H315.569V193.01H314.999L314.929 191.87C314.549 192.58 313.649 193.12 312.489 193.12C310.459 193.12 309.059 191.66 309.059 189.45C309.059 187.26 310.459 185.72 312.509 185.72C314.019 185.72 315.189 186.58 315.469 187.88H314.689C314.389 186.9 313.549 186.4 312.499 186.4ZM317.719 193H316.999V185.84H317.729L321.669 191.8V185.84H322.379V193H321.669L317.719 187.04V193Z" fill="#475467"/>
<rect x="410" y="168" width="195" height="42" fill="white"/>
<rect x="410" y="168" width="195" height="42" stroke="#EAECF0"/>
<path d="M488.7 191.48H487.86V193H487.16V191.48H483.4V190.84L486.9 185.84H487.86V190.84H488.7V191.48ZM484.18 190.84H487.16V186.58L484.18 190.84ZM489.82 189.42C489.82 187.2 490.91 185.7 492.69 185.7C494.46 185.7 495.55 187.2 495.55 189.42C495.55 191.65 494.48 193.13 492.69 193.13C490.89 193.13 489.82 191.65 489.82 189.42ZM490.53 189.42C490.53 191.28 491.32 192.48 492.69 192.48C494.06 192.48 494.85 191.28 494.85 189.42C494.85 187.55 494.06 186.36 492.69 186.36C491.32 186.36 490.53 187.55 490.53 189.42ZM500.279 193H499.589V188.16H500.189L500.269 188.85C500.509 188.34 501.049 188.03 501.729 188.03C502.489 188.03 503.059 188.43 503.289 189.06C503.509 188.43 504.099 188.03 504.879 188.03C505.929 188.03 506.619 188.71 506.619 189.83V193H505.949V189.97C505.949 189.14 505.489 188.65 504.749 188.65C503.939 188.65 503.459 189.26 503.459 190.01V193H502.779V189.96C502.779 189.14 502.309 188.66 501.579 188.66C500.769 188.66 500.279 189.26 500.279 190V193ZM507.667 190.58C507.667 189.1 508.707 188.03 510.127 188.03C511.547 188.03 512.587 189.1 512.587 190.58C512.587 192.05 511.547 193.12 510.127 193.12C508.707 193.12 507.667 192.05 507.667 190.58ZM508.367 190.57C508.367 191.71 509.087 192.5 510.127 192.5C511.157 192.5 511.887 191.71 511.887 190.57C511.887 189.45 511.157 188.65 510.127 188.65C509.087 188.65 508.367 189.45 508.367 190.57ZM514.381 193H513.691V188.16H514.291L514.391 189C514.711 188.38 515.351 188.03 516.051 188.03C517.381 188.03 517.931 188.82 517.931 190.04V193H517.241V190.19C517.241 189.06 516.731 188.66 515.931 188.66C514.941 188.66 514.381 189.38 514.381 190.47V193ZM520.416 193H519.736V188.74H518.766V188.16H519.736V186.63H520.416V188.16H521.386V188.74H520.416V193ZM522.974 192.99H522.284V185.71H522.974V189C523.284 188.42 523.874 188.03 524.684 188.03C525.954 188.03 526.524 188.82 526.524 190.04V193H525.834V190.19C525.834 189.06 525.304 188.66 524.554 188.66C523.514 188.66 522.974 189.43 522.974 190.36V192.99ZM527.431 191.64H528.091C528.091 192.2 528.511 192.55 529.191 192.55C529.941 192.55 530.381 192.23 530.381 191.71C530.381 191.31 530.181 191.08 529.611 190.94L528.781 190.73C527.941 190.52 527.531 190.08 527.531 189.42C527.531 188.57 528.241 188.03 529.281 188.03C530.301 188.03 530.961 188.59 530.991 189.49H530.321C530.301 188.93 529.911 188.6 529.261 188.6C528.581 188.6 528.201 188.89 528.201 189.41C528.201 189.78 528.461 190.04 528.991 190.17L529.821 190.38C530.661 190.59 531.041 190.98 531.041 191.68C531.041 192.55 530.301 193.12 529.201 193.12C528.111 193.12 527.431 192.54 527.431 191.64Z" fill="#475467"/>
<rect x="605" y="168" width="195" height="42" fill="white"/>
<rect x="605" y="168" width="195" height="42" stroke="#EAECF0"/>
<path d="M683.9 193.12C682.46 193.12 681.54 192.22 681.54 190.81H682.26C682.26 191.84 682.89 192.46 683.91 192.46C684.99 192.46 685.69 191.74 685.69 190.68C685.69 189.68 685.04 188.89 683.91 188.89C683.25 188.89 682.65 189.19 682.26 189.62L681.69 189.44L682.55 185.84H686.01V186.5H683.07L682.53 188.75C682.93 188.43 683.45 188.25 684.01 188.25C685.5 188.25 686.42 189.32 686.42 190.66C686.42 192.1 685.4 193.12 683.9 193.12ZM687.38 189.42C687.38 187.2 688.47 185.7 690.25 185.7C692.02 185.7 693.11 187.2 693.11 189.42C693.11 191.65 692.04 193.13 690.25 193.13C688.45 193.13 687.38 191.65 687.38 189.42ZM688.09 189.42C688.09 191.28 688.88 192.48 690.25 192.48C691.62 192.48 692.41 191.28 692.41 189.42C692.41 187.55 691.62 186.36 690.25 186.36C688.88 186.36 688.09 187.55 688.09 189.42ZM695.016 188.25L696.806 185.84H697.646L695.766 188.33C696.106 188.16 696.416 188.09 696.746 188.09C698.236 188.09 699.226 189.18 699.226 190.58C699.226 192.05 698.116 193.12 696.686 193.12C695.246 193.12 694.116 192.01 694.116 190.58C694.116 189.75 694.346 189.17 695.016 188.25ZM694.846 190.59C694.846 191.68 695.596 192.47 696.686 192.47C697.746 192.47 698.506 191.68 698.506 190.59C698.506 189.5 697.746 188.72 696.686 188.72C695.596 188.72 694.846 189.5 694.846 190.59ZM701.072 186.49H699.612V185.84H701.762V193H701.072V186.49ZM704.373 186.49H702.913V185.84H705.062V193H704.373V186.49ZM711.072 193H706.352V192.43L708.642 190.43C709.962 189.28 710.302 188.78 710.302 187.93C710.302 186.96 709.722 186.37 708.772 186.37C707.782 186.37 707.132 187.09 707.102 188.2H706.382C706.422 186.7 707.372 185.71 708.782 185.71C710.132 185.71 711.032 186.58 711.032 187.89C711.032 188.93 710.562 189.62 709.132 190.87L707.462 192.33H711.072V193ZM714.067 189.16H713.497V188.66L715.707 186.48H712.277V185.84H716.617V186.42L714.477 188.55C715.817 188.62 716.777 189.47 716.777 190.77C716.777 192.19 715.737 193.12 714.287 193.12C712.877 193.12 711.927 192.25 711.927 190.82H712.637C712.637 191.85 713.277 192.47 714.287 192.47C715.357 192.47 716.047 191.79 716.047 190.75C716.047 189.77 715.347 189.16 714.067 189.16ZM722.862 191.48H722.022V193H721.322V191.48H717.562V190.84L721.062 185.84H722.022V190.84H722.862V191.48ZM718.342 190.84H721.322V186.58L718.342 190.84Z" fill="#475467"/>
<rect x="800" y="168" width="195" height="42" fill="white"/>
<rect x="800" y="168" width="195" height="42" stroke="#EAECF0"/>
<path d="M853.31 186.49H851.85V185.84H854V193H853.31V186.49ZM856.611 186.49H855.151V185.84H857.301V193H856.611V186.49ZM859.016 193H858.336L861.126 185.84H861.826L859.016 193ZM863.779 186.49H862.319V185.84H864.469V193H863.779V186.49ZM865.859 189.42C865.859 187.2 866.949 185.7 868.729 185.7C870.499 185.7 871.589 187.2 871.589 189.42C871.589 191.65 870.519 193.13 868.729 193.13C866.929 193.13 865.859 191.65 865.859 189.42ZM866.569 189.42C866.569 191.28 867.359 192.48 868.729 192.48C870.099 192.48 870.889 191.28 870.889 189.42C870.889 187.55 870.099 186.36 868.729 186.36C867.359 186.36 866.569 187.55 866.569 189.42ZM872.668 193H871.988L874.778 185.84H875.478L872.668 193ZM880.498 193H875.778V192.43L878.068 190.43C879.388 189.28 879.728 188.78 879.728 187.93C879.728 186.96 879.148 186.37 878.198 186.37C877.208 186.37 876.558 187.09 876.528 188.2H875.808C875.848 186.7 876.798 185.71 878.208 185.71C879.558 185.71 880.458 186.58 880.458 187.89C880.458 188.93 879.988 189.62 878.558 190.87L876.888 192.33H880.498V193ZM881.493 189.42C881.493 187.2 882.583 185.7 884.363 185.7C886.133 185.7 887.223 187.2 887.223 189.42C887.223 191.65 886.153 193.13 884.363 193.13C882.563 193.13 881.493 191.65 881.493 189.42ZM882.203 189.42C882.203 191.28 882.993 192.48 884.363 192.48C885.733 192.48 886.523 191.28 886.523 189.42C886.523 187.55 885.733 186.36 884.363 186.36C882.993 186.36 882.203 187.55 882.203 189.42ZM892.94 193H888.22V192.43L890.51 190.43C891.83 189.28 892.17 188.78 892.17 187.93C892.17 186.96 891.59 186.37 890.64 186.37C889.65 186.37 889 187.09 888.97 188.2H888.25C888.29 186.7 889.24 185.71 890.65 185.71C892 185.71 892.9 186.58 892.9 187.89C892.9 188.93 892.43 189.62 891 190.87L889.33 192.33H892.94V193ZM898.802 191.48H897.962V193H897.262V191.48H893.502V190.84L897.002 185.84H897.962V190.84H898.802V191.48ZM894.282 190.84H897.262V186.58L894.282 190.84ZM910.088 193H905.368V192.43L907.658 190.43C908.978 189.28 909.318 188.78 909.318 187.93C909.318 186.96 908.738 186.37 907.788 186.37C906.798 186.37 906.148 187.09 906.118 188.2H905.398C905.438 186.7 906.388 185.71 907.798 185.71C909.148 185.71 910.048 186.58 910.048 187.89C910.048 188.93 909.578 189.62 908.148 190.87L906.478 192.33H910.088V193ZM913.083 189.16H912.513V188.66L914.723 186.48H911.293V185.84H915.633V186.42L913.493 188.55C914.833 188.62 915.793 189.47 915.793 190.77C915.793 192.19 914.753 193.12 913.303 193.12C911.893 193.12 910.943 192.25 910.943 190.82H911.653C911.653 191.85 912.293 192.47 913.303 192.47C914.373 192.47 915.063 191.79 915.063 190.75C915.063 189.77 914.363 189.16 913.083 189.16ZM917.646 189.28C917.306 189.28 917.016 188.99 917.016 188.66C917.016 188.32 917.306 188.04 917.646 188.04C917.986 188.04 918.276 188.32 918.276 188.66C918.276 188.99 917.986 189.28 917.646 189.28ZM917.646 193.11C917.306 193.11 917.016 192.83 917.016 192.5C917.016 192.16 917.306 191.87 917.646 191.87C917.986 191.87 918.276 192.16 918.276 192.5C918.276 192.83 917.986 193.11 917.646 193.11ZM924.229 193H919.509V192.43L921.799 190.43C923.119 189.28 923.459 188.78 923.459 187.93C923.459 186.96 922.879 186.37 921.929 186.37C920.939 186.37 920.289 187.09 920.259 188.2H919.539C919.579 186.7 920.529 185.71 921.939 185.71C923.289 185.71 924.189 186.58 924.189 187.89C924.189 188.93 923.719 189.62 922.289 190.87L920.619 192.33H924.229V193ZM926.503 186.49H925.043V185.84H927.193V193H926.503V186.49ZM929.443 189.28C929.103 189.28 928.813 188.99 928.813 188.66C928.813 188.32 929.103 188.04 929.443 188.04C929.783 188.04 930.073 188.32 930.073 188.66C930.073 188.99 929.783 189.28 929.443 189.28ZM929.443 193.11C929.103 193.11 928.813 192.83 928.813 192.5C928.813 192.16 929.103 191.87 929.443 191.87C929.783 191.87 930.073 192.16 930.073 192.5C930.073 192.83 929.783 193.11 929.443 193.11ZM931.405 189.42C931.405 187.2 932.495 185.7 934.275 185.7C936.045 185.7 937.135 187.2 937.135 189.42C937.135 191.65 936.065 193.13 934.275 193.13C932.475 193.13 931.405 191.65 931.405 189.42ZM932.115 189.42C932.115 191.28 932.905 192.48 934.275 192.48C935.645 192.48 936.435 191.28 936.435 189.42C936.435 187.55 935.645 186.36 934.275 186.36C932.905 186.36 932.115 187.55 932.115 189.42ZM940.134 189.16H939.564V188.66L941.774 186.48H938.344V185.84H942.684V186.42L940.544 188.55C941.884 188.62 942.844 189.47 942.844 190.77C942.844 192.19 941.804 193.12 940.354 193.12C938.944 193.12 937.994 192.25 937.994 190.82H938.704C938.704 191.85 939.344 192.47 940.354 192.47C941.424 192.47 942.114 191.79 942.114 190.75C942.114 189.77 941.414 189.16 940.134 189.16Z" fill="#475467"/>
<path d="M995 168H1190V210H995V168Z" fill="white"/>
<path d="M995 168H1190V210H995V168Z" stroke="#EAECF0"/>
<path d="M1075.83 184V183.334C1075.83 182.4 1075.83 181.934 1075.65 181.577C1075.49 181.263 1075.24 181.008 1074.92 180.849C1074.57 180.667 1074.1 180.667 1073.17 180.667H1071.83C1070.9 180.667 1070.43 180.667 1070.08 180.849C1069.76 181.008 1069.51 181.263 1069.35 181.577C1069.17 181.934 1069.17 182.4 1069.17 183.334V184M1070.83 188.584V192.75M1074.17 188.584V192.75M1065 184H1080M1078.33 184V193.334C1078.33 194.734 1078.33 195.434 1078.06 195.969C1077.82 196.439 1077.44 196.821 1076.97 197.061C1076.43 197.334 1075.73 197.334 1074.33 197.334H1070.67C1069.27 197.334 1068.57 197.334 1068.03 197.061C1067.56 196.821 1067.18 196.439 1066.94 195.969C1066.67 195.434 1066.67 194.734 1066.67 193.334V184" stroke="#475467" stroke-linecap="round" stroke-linejoin="round"/>
<path d="M1104.9 194.096C1104.93 193.752 1104.95 193.579 1105.01 193.418C1105.05 193.276 1105.12 193.14 1105.2 193.014C1105.29 192.873 1105.42 192.75 1105.66 192.505L1116.67 181.5C1117.59 180.579 1119.08 180.579 1120 181.5C1120.92 182.42 1120.92 183.913 1120 184.833L1108.99 195.838C1108.75 196.084 1108.63 196.206 1108.49 196.299C1108.36 196.382 1108.22 196.447 1108.08 196.494C1107.92 196.546 1107.75 196.565 1107.4 196.603L1104.58 196.917L1104.9 194.096Z" stroke="#475467" stroke-linecap="round" stroke-linejoin="round"/>
<rect x="20" y="210" width="195" height="42" fill="white"/>
<rect x="20" y="210" width="195" height="42" stroke="#EAECF0"/>
<path d="M46.84 235L44.1 227.84H44.87L46.78 232.82C46.93 233.21 47.07 233.6 47.23 234.1C47.38 233.58 47.56 233.08 47.67 232.81L49.57 227.84H50.31L47.59 235H46.84ZM52.4141 235.12C50.9941 235.12 50.0441 234.1 50.0441 232.58C50.0441 231.07 50.9841 230.03 52.3641 230.03C53.6741 230.03 54.5641 230.96 54.5641 232.33V232.67H50.7141C50.7641 233.85 51.3841 234.53 52.4241 234.53C53.2141 234.53 53.7241 234.19 53.9041 233.55H54.5641C54.3041 234.57 53.5541 235.12 52.4141 235.12ZM52.3641 230.62C51.4541 230.62 50.8541 231.22 50.7341 232.17H53.8741C53.8741 231.24 53.2741 230.62 52.3641 230.62ZM58.1973 230.1V230.72H57.8173C56.9273 230.72 56.3573 231.32 56.3573 232.24V235H55.6673V230.16H56.3173L56.3673 230.91C56.5573 230.39 57.0673 230.05 57.7473 230.05C57.8973 230.05 58.0273 230.06 58.1973 230.1ZM60.611 235L58.631 230.16H59.371L60.621 233.28C60.751 233.63 60.881 233.96 60.971 234.28C61.061 233.95 61.191 233.63 61.331 233.28L62.601 230.16H63.311L61.301 235H60.611ZM65.9395 235.12C64.5195 235.12 63.5695 234.1 63.5695 232.58C63.5695 231.07 64.5095 230.03 65.8895 230.03C67.1995 230.03 68.0895 230.96 68.0895 232.33V232.67H64.2395C64.2895 233.85 64.9095 234.53 65.9495 234.53C66.7395 234.53 67.2495 234.19 67.4295 233.55H68.0895C67.8295 234.57 67.0795 235.12 65.9395 235.12ZM65.8895 230.62C64.9795 230.62 64.3795 231.22 64.2595 232.17H67.3995C67.3995 231.24 66.7995 230.62 65.8895 230.62ZM69.1127 232.68V232.06H72.0127V232.68H69.1127ZM73.9057 228.49H72.4457V227.84H74.5957V235H73.9057V228.49Z" fill="#475467"/>
<rect x="215" y="210" width="195" height="42" fill="white"/>
<rect x="215" y="210" width="195" height="42" stroke="#EAECF0"/>
<path d="M303.09 235H302.37V227.84H303.1L307.04 233.8V227.84H307.75V235H307.04L303.09 229.04V235ZM312.499 228.4C310.849 228.4 309.809 229.62 309.809 231.45C309.809 233.31 310.909 234.44 312.519 234.44C313.719 234.44 314.889 233.86 314.889 232.14V231.77H312.299V231.13H315.569V235.01H314.999L314.929 233.87C314.549 234.58 313.649 235.12 312.489 235.12C310.459 235.12 309.059 233.66 309.059 231.45C309.059 229.26 310.459 227.72 312.509 227.72C314.019 227.72 315.189 228.58 315.469 229.88H314.689C314.389 228.9 313.549 228.4 312.499 228.4ZM317.719 235H316.999V227.84H317.729L321.669 233.8V227.84H322.379V235H321.669L317.719 229.04V235Z" fill="#475467"/>
<rect x="410" y="210" width="195" height="42" fill="white"/>
<rect x="410" y="210" width="195" height="42" stroke="#EAECF0"/>
<path d="M488.7 233.48H487.86V235H487.16V233.48H483.4V232.84L486.9 227.84H487.86V232.84H488.7V233.48ZM484.18 232.84H487.16V228.58L484.18 232.84ZM489.82 231.42C489.82 229.2 490.91 227.7 492.69 227.7C494.46 227.7 495.55 229.2 495.55 231.42C495.55 233.65 494.48 235.13 492.69 235.13C490.89 235.13 489.82 233.65 489.82 231.42ZM490.53 231.42C490.53 233.28 491.32 234.48 492.69 234.48C494.06 234.48 494.85 233.28 494.85 231.42C494.85 229.55 494.06 228.36 492.69 228.36C491.32 228.36 490.53 229.55 490.53 231.42ZM500.279 235H499.589V230.16H500.189L500.269 230.85C500.509 230.34 501.049 230.03 501.729 230.03C502.489 230.03 503.059 230.43 503.289 231.06C503.509 230.43 504.099 230.03 504.879 230.03C505.929 230.03 506.619 230.71 506.619 231.83V235H505.949V231.97C505.949 231.14 505.489 230.65 504.749 230.65C503.939 230.65 503.459 231.26 503.459 232.01V235H502.779V231.96C502.779 231.14 502.309 230.66 501.579 230.66C500.769 230.66 500.279 231.26 500.279 232V235ZM507.667 232.58C507.667 231.1 508.707 230.03 510.127 230.03C511.547 230.03 512.587 231.1 512.587 232.58C512.587 234.05 511.547 235.12 510.127 235.12C508.707 235.12 507.667 234.05 507.667 232.58ZM508.367 232.57C508.367 233.71 509.087 234.5 510.127 234.5C511.157 234.5 511.887 233.71 511.887 232.57C511.887 231.45 511.157 230.65 510.127 230.65C509.087 230.65 508.367 231.45 508.367 232.57ZM514.381 235H513.691V230.16H514.291L514.391 231C514.711 230.38 515.351 230.03 516.051 230.03C517.381 230.03 517.931 230.82 517.931 232.04V235H517.241V232.19C517.241 231.06 516.731 230.66 515.931 230.66C514.941 230.66 514.381 231.38 514.381 232.47V235ZM520.416 235H519.736V230.74H518.766V230.16H519.736V228.63H520.416V230.16H521.386V230.74H520.416V235ZM522.974 234.99H522.284V227.71H522.974V231C523.284 230.42 523.874 230.03 524.684 230.03C525.954 230.03 526.524 230.82 526.524 232.04V235H525.834V232.19C525.834 231.06 525.304 230.66 524.554 230.66C523.514 230.66 522.974 231.43 522.974 232.36V234.99ZM527.431 233.64H528.091C528.091 234.2 528.511 234.55 529.191 234.55C529.941 234.55 530.381 234.23 530.381 233.71C530.381 233.31 530.181 233.08 529.611 232.94L528.781 232.73C527.941 232.52 527.531 232.08 527.531 231.42C527.531 230.57 528.241 230.03 529.281 230.03C530.301 230.03 530.961 230.59 530.991 231.49H530.321C530.301 230.93 529.911 230.6 529.261 230.6C528.581 230.6 528.201 230.89 528.201 231.41C528.201 231.78 528.461 232.04 528.991 232.17L529.821 232.38C530.661 232.59 531.041 232.98 531.041 233.68C531.041 234.55 530.301 235.12 529.201 235.12C528.111 235.12 527.431 234.54 527.431 233.64Z" fill="#475467"/>
<rect x="605" y="210" width="195" height="42" fill="white"/>
<rect x="605" y="210" width="195" height="42" stroke="#EAECF0"/>
<path d="M683.9 235.12C682.46 235.12 681.54 234.22 681.54 232.81H682.26C682.26 233.84 682.89 234.46 683.91 234.46C684.99 234.46 685.69 233.74 685.69 232.68C685.69 231.68 685.04 230.89 683.91 230.89C683.25 230.89 682.65 231.19 682.26 231.62L681.69 231.44L682.55 227.84H686.01V228.5H683.07L682.53 230.75C682.93 230.43 683.45 230.25 684.01 230.25C685.5 230.25 686.42 231.32 686.42 232.66C686.42 234.1 685.4 235.12 683.9 235.12ZM687.38 231.42C687.38 229.2 688.47 227.7 690.25 227.7C692.02 227.7 693.11 229.2 693.11 231.42C693.11 233.65 692.04 235.13 690.25 235.13C688.45 235.13 687.38 233.65 687.38 231.42ZM688.09 231.42C688.09 233.28 688.88 234.48 690.25 234.48C691.62 234.48 692.41 233.28 692.41 231.42C692.41 229.55 691.62 228.36 690.25 228.36C688.88 228.36 688.09 229.55 688.09 231.42ZM695.016 230.25L696.806 227.84H697.646L695.766 230.33C696.106 230.16 696.416 230.09 696.746 230.09C698.236 230.09 699.226 231.18 699.226 232.58C699.226 234.05 698.116 235.12 696.686 235.12C695.246 235.12 694.116 234.01 694.116 232.58C694.116 231.75 694.346 231.17 695.016 230.25ZM694.846 232.59C694.846 233.68 695.596 234.47 696.686 234.47C697.746 234.47 698.506 233.68 698.506 232.59C698.506 231.5 697.746 230.72 696.686 230.72C695.596 230.72 694.846 231.5 694.846 232.59ZM701.072 228.49H699.612V227.84H701.762V235H701.072V228.49ZM704.373 228.49H702.913V227.84H705.062V235H704.373V228.49ZM711.072 235H706.352V234.43L708.642 232.43C709.962 231.28 710.302 230.78 710.302 229.93C710.302 228.96 709.722 228.37 708.772 228.37C707.782 228.37 707.132 229.09 707.102 230.2H706.382C706.422 228.7 707.372 227.71 708.782 227.71C710.132 227.71 711.032 228.58 711.032 229.89C711.032 230.93 710.562 231.62 709.132 232.87L707.462 234.33H711.072V235ZM714.067 231.16H713.497V230.66L715.707 228.48H712.277V227.84H716.617V228.42L714.477 230.55C715.817 230.62 716.777 231.47 716.777 232.77C716.777 234.19 715.737 235.12 714.287 235.12C712.877 235.12 711.927 234.25 711.927 232.82H712.637C712.637 233.85 713.277 234.47 714.287 234.47C715.357 234.47 716.047 233.79 716.047 232.75C716.047 231.77 715.347 231.16 714.067 231.16ZM722.862 233.48H722.022V235H721.322V233.48H717.562V232.84L721.062 227.84H722.022V232.84H722.862V233.48ZM718.342 232.84H721.322V228.58L718.342 232.84Z" fill="#475467"/>
<rect x="800" y="210" width="195" height="42" fill="white"/>
<rect x="800" y="210" width="195" height="42" stroke="#EAECF0"/>
<path d="M853.31 228.49H851.85V227.84H854V235H853.31V228.49ZM856.611 228.49H855.151V227.84H857.301V235H856.611V228.49ZM859.016 235H858.336L861.126 227.84H861.826L859.016 235ZM863.779 228.49H862.319V227.84H864.469V235H863.779V228.49ZM865.859 231.42C865.859 229.2 866.949 227.7 868.729 227.7C870.499 227.7 871.589 229.2 871.589 231.42C871.589 233.65 870.519 235.13 868.729 235.13C866.929 235.13 865.859 233.65 865.859 231.42ZM866.569 231.42C866.569 233.28 867.359 234.48 868.729 234.48C870.099 234.48 870.889 233.28 870.889 231.42C870.889 229.55 870.099 228.36 868.729 228.36C867.359 228.36 866.569 229.55 866.569 231.42ZM872.668 235H871.988L874.778 227.84H875.478L872.668 235ZM880.498 235H875.778V234.43L878.068 232.43C879.388 231.28 879.728 230.78 879.728 229.93C879.728 228.96 879.148 228.37 878.198 228.37C877.208 228.37 876.558 229.09 876.528 230.2H875.808C875.848 228.7 876.798 227.71 878.208 227.71C879.558 227.71 880.458 228.58 880.458 229.89C880.458 230.93 879.988 231.62 878.558 232.87L876.888 234.33H880.498V235ZM881.493 231.42C881.493 229.2 882.583 227.7 884.363 227.7C886.133 227.7 887.223 229.2 887.223 231.42C887.223 233.65 886.153 235.13 884.363 235.13C882.563 235.13 881.493 233.65 881.493 231.42ZM882.203 231.42C882.203 233.28 882.993 234.48 884.363 234.48C885.733 234.48 886.523 233.28 886.523 231.42C886.523 229.55 885.733 228.36 884.363 228.36C882.993 228.36 882.203 229.55 882.203 231.42ZM892.94 235H888.22V234.43L890.51 232.43C891.83 231.28 892.17 230.78 892.17 229.93C892.17 228.96 891.59 228.37 890.64 228.37C889.65 228.37 889 229.09 888.97 230.2H888.25C888.29 228.7 889.24 227.71 890.65 227.71C892 227.71 892.9 228.58 892.9 229.89C892.9 230.93 892.43 231.62 891 232.87L889.33 234.33H892.94V235ZM898.802 233.48H897.962V235H897.262V233.48H893.502V232.84L897.002 227.84H897.962V232.84H898.802V233.48ZM894.282 232.84H897.262V228.58L894.282 232.84ZM910.088 235H905.368V234.43L907.658 232.43C908.978 231.28 909.318 230.78 909.318 229.93C909.318 228.96 908.738 228.37 907.788 228.37C906.798 228.37 906.148 229.09 906.118 230.2H905.398C905.438 228.7 906.388 227.71 907.798 227.71C909.148 227.71 910.048 228.58 910.048 229.89C910.048 230.93 909.578 231.62 908.148 232.87L906.478 234.33H910.088V235ZM913.083 231.16H912.513V230.66L914.723 228.48H911.293V227.84H915.633V228.42L913.493 230.55C914.833 230.62 915.793 231.47 915.793 232.77C915.793 234.19 914.753 235.12 913.303 235.12C911.893 235.12 910.943 234.25 910.943 232.82H911.653C911.653 233.85 912.293 234.47 913.303 234.47C914.373 234.47 915.063 233.79 915.063 232.75C915.063 231.77 914.363 231.16 913.083 231.16ZM917.646 231.28C917.306 231.28 917.016 230.99 917.016 230.66C917.016 230.32 917.306 230.04 917.646 230.04C917.986 230.04 918.276 230.32 918.276 230.66C918.276 230.99 917.986 231.28 917.646 231.28ZM917.646 235.11C917.306 235.11 917.016 234.83 917.016 234.5C917.016 234.16 917.306 233.87 917.646 233.87C917.986 233.87 918.276 234.16 918.276 234.5C918.276 234.83 917.986 235.11 917.646 235.11ZM924.229 235H919.509V234.43L921.799 232.43C923.119 231.28 923.459 230.78 923.459 229.93C923.459 228.96 922.879 228.37 921.929 228.37C920.939 228.37 920.289 229.09 920.259 230.2H919.539C919.579 228.7 920.529 227.71 921.939 227.71C923.289 227.71 924.189 228.58 924.189 229.89C924.189 230.93 923.719 231.62 922.289 232.87L920.619 234.33H924.229V235ZM926.503 228.49H925.043V227.84H927.193V235H926.503V228.49ZM929.443 231.28C929.103 231.28 928.813 230.99 928.813 230.66C928.813 230.32 929.103 230.04 929.443 230.04C929.783 230.04 930.073 230.32 930.073 230.66C930.073 230.99 929.783 231.28 929.443 231.28ZM929.443 235.11C929.103 235.11 928.813 234.83 928.813 234.5C928.813 234.16 929.103 233.87 929.443 233.87C929.783 233.87 930.073 234.16 930.073 234.5C930.073 234.83 929.783 235.11 929.443 235.11ZM931.405 231.42C931.405 229.2 932.495 227.7 934.275 227.7C936.045 227.7 937.135 229.2 937.135 231.42C937.135 233.65 936.065 235.13 934.275 235.13C932.475 235.13 931.405 233.65 931.405 231.42ZM932.115 231.42C932.115 233.28 932.905 234.48 934.275 234.48C935.645 234.48 936.435 233.28 936.435 231.42C936.435 229.55 935.645 228.36 934.275 228.36C932.905 228.36 932.115 229.55 932.115 231.42ZM940.134 231.16H939.564V230.66L941.774 228.48H938.344V227.84H942.684V228.42L940.544 230.55C941.884 230.62 942.844 231.47 942.844 232.77C942.844 234.19 941.804 235.12 940.354 235.12C938.944 235.12 937.994 234.25 937.994 232.82H938.704C938.704 233.85 939.344 234.47 940.354 234.47C941.424 234.47 942.114 233.79 942.114 232.75C942.114 231.77 941.414 231.16 940.134 231.16Z" fill="#475467"/>
<path d="M995 210H1190V252H995V210Z" fill="white"/>
<path d="M995 210H1190V252H995V210Z" stroke="#EAECF0"/>
<path d="M1075.83 226V225.334C1075.83 224.4 1075.83 223.934 1075.65 223.577C1075.49 223.263 1075.24 223.008 1074.92 222.849C1074.57 222.667 1074.1 222.667 1073.17 222.667H1071.83C1070.9 222.667 1070.43 222.667 1070.08 222.849C1069.76 223.008 1069.51 223.263 1069.35 223.577C1069.17 223.934 1069.17 224.4 1069.17 225.334V226M1070.83 230.584V234.75M1074.17 230.584V234.75M1065 226H1080M1078.33 226V235.334C1078.33 236.734 1078.33 237.434 1078.06 237.969C1077.82 238.439 1077.44 238.821 1076.97 239.061C1076.43 239.334 1075.73 239.334 1074.33 239.334H1070.67C1069.27 239.334 1068.57 239.334 1068.03 239.061C1067.56 238.821 1067.18 238.439 1066.94 237.969C1066.67 237.434 1066.67 236.734 1066.67 235.334V226" stroke="#475467" stroke-linecap="round" stroke-linejoin="round"/>
<path d="M1104.9 236.096C1104.93 235.752 1104.95 235.579 1105.01 235.418C1105.05 235.276 1105.12 235.14 1105.2 235.014C1105.29 234.873 1105.42 234.75 1105.66 234.505L1116.67 223.5C1117.59 222.579 1119.08 222.579 1120 223.5C1120.92 224.42 1120.92 225.913 1120 226.833L1108.99 237.838C1108.75 238.084 1108.63 238.206 1108.49 238.299C1108.36 238.382 1108.22 238.447 1108.08 238.494C1107.92 238.546 1107.75 238.565 1107.4 238.603L1104.58 238.917L1104.9 236.096Z" stroke="#475467" stroke-linecap="round" stroke-linejoin="round"/>
<rect x="20" y="252" width="195" height="42" fill="white"/>
<rect x="20" y="252" width="195" height="42" stroke="#EAECF0"/>
<path d="M46.84 277L44.1 269.84H44.87L46.78 274.82C46.93 275.21 47.07 275.6 47.23 276.1C47.38 275.58 47.56 275.08 47.67 274.81L49.57 269.84H50.31L47.59 277H46.84ZM52.4141 277.12C50.9941 277.12 50.0441 276.1 50.0441 274.58C50.0441 273.07 50.9841 272.03 52.3641 272.03C53.6741 272.03 54.5641 272.96 54.5641 274.33V274.67H50.7141C50.7641 275.85 51.3841 276.53 52.4241 276.53C53.2141 276.53 53.7241 276.19 53.9041 275.55H54.5641C54.3041 276.57 53.5541 277.12 52.4141 277.12ZM52.3641 272.62C51.4541 272.62 50.8541 273.22 50.7341 274.17H53.8741C53.8741 273.24 53.2741 272.62 52.3641 272.62ZM58.1973 272.1V272.72H57.8173C56.9273 272.72 56.3573 273.32 56.3573 274.24V277H55.6673V272.16H56.3173L56.3673 272.91C56.5573 272.39 57.0673 272.05 57.7473 272.05C57.8973 272.05 58.0273 272.06 58.1973 272.1ZM60.611 277L58.631 272.16H59.371L60.621 275.28C60.751 275.63 60.881 275.96 60.971 276.28C61.061 275.95 61.191 275.63 61.331 275.28L62.601 272.16H63.311L61.301 277H60.611ZM65.9395 277.12C64.5195 277.12 63.5695 276.1 63.5695 274.58C63.5695 273.07 64.5095 272.03 65.8895 272.03C67.1995 272.03 68.0895 272.96 68.0895 274.33V274.67H64.2395C64.2895 275.85 64.9095 276.53 65.9495 276.53C66.7395 276.53 67.2495 276.19 67.4295 275.55H68.0895C67.8295 276.57 67.0795 277.12 65.9395 277.12ZM65.8895 272.62C64.9795 272.62 64.3795 273.22 64.2595 274.17H67.3995C67.3995 273.24 66.7995 272.62 65.8895 272.62ZM69.1127 274.68V274.06H72.0127V274.68H69.1127ZM73.9057 270.49H72.4457V269.84H74.5957V277H73.9057V270.49Z" fill="#475467"/>
<rect x="215" y="252" width="195" height="42" fill="white"/>
<rect x="215" y="252" width="195" height="42" stroke="#EAECF0"/>
<path d="M303.09 277H302.37V269.84H303.1L307.04 275.8V269.84H307.75V277H307.04L303.09 271.04V277ZM312.499 270.4C310.849 270.4 309.809 271.62 309.809 273.45C309.809 275.31 310.909 276.44 312.519 276.44C313.719 276.44 314.889 275.86 314.889 274.14V273.77H312.299V273.13H315.569V277.01H314.999L314.929 275.87C314.549 276.58 313.649 277.12 312.489 277.12C310.459 277.12 309.059 275.66 309.059 273.45C309.059 271.26 310.459 269.72 312.509 269.72C314.019 269.72 315.189 270.58 315.469 271.88H314.689C314.389 270.9 313.549 270.4 312.499 270.4ZM317.719 277H316.999V269.84H317.729L321.669 275.8V269.84H322.379V277H321.669L317.719 271.04V277Z" fill="#475467"/>
<rect x="410" y="252" width="195" height="42" fill="white"/>
<rect x="410" y="252" width="195" height="42" stroke="#EAECF0"/>
<path d="M488.7 275.48H487.86V277H487.16V275.48H483.4V274.84L486.9 269.84H487.86V274.84H488.7V275.48ZM484.18 274.84H487.16V270.58L484.18 274.84ZM489.82 273.42C489.82 271.2 490.91 269.7 492.69 269.7C494.46 269.7 495.55 271.2 495.55 273.42C495.55 275.65 494.48 277.13 492.69 277.13C490.89 277.13 489.82 275.65 489.82 273.42ZM490.53 273.42C490.53 275.28 491.32 276.48 492.69 276.48C494.06 276.48 494.85 275.28 494.85 273.42C494.85 271.55 494.06 270.36 492.69 270.36C491.32 270.36 490.53 271.55 490.53 273.42ZM500.279 277H499.589V272.16H500.189L500.269 272.85C500.509 272.34 501.049 272.03 501.729 272.03C502.489 272.03 503.059 272.43 503.289 273.06C503.509 272.43 504.099 272.03 504.879 272.03C505.929 272.03 506.619 272.71 506.619 273.83V277H505.949V273.97C505.949 273.14 505.489 272.65 504.749 272.65C503.939 272.65 503.459 273.26 503.459 274.01V277H502.779V273.96C502.779 273.14 502.309 272.66 501.579 272.66C500.769 272.66 500.279 273.26 500.279 274V277ZM507.667 274.58C507.667 273.1 508.707 272.03 510.127 272.03C511.547 272.03 512.587 273.1 512.587 274.58C512.587 276.05 511.547 277.12 510.127 277.12C508.707 277.12 507.667 276.05 507.667 274.58ZM508.367 274.57C508.367 275.71 509.087 276.5 510.127 276.5C511.157 276.5 511.887 275.71 511.887 274.57C511.887 273.45 511.157 272.65 510.127 272.65C509.087 272.65 508.367 273.45 508.367 274.57ZM514.381 277H513.691V272.16H514.291L514.391 273C514.711 272.38 515.351 272.03 516.051 272.03C517.381 272.03 517.931 272.82 517.931 274.04V277H517.241V274.19C517.241 273.06 516.731 272.66 515.931 272.66C514.941 272.66 514.381 273.38 514.381 274.47V277ZM520.416 277H519.736V272.74H518.766V272.16H519.736V270.63H520.416V272.16H521.386V272.74H520.416V277ZM522.974 276.99H522.284V269.71H522.974V273C523.284 272.42 523.874 272.03 524.684 272.03C525.954 272.03 526.524 272.82 526.524 274.04V277H525.834V274.19C525.834 273.06 525.304 272.66 524.554 272.66C523.514 272.66 522.974 273.43 522.974 274.36V276.99ZM527.431 275.64H528.091C528.091 276.2 528.511 276.55 529.191 276.55C529.941 276.55 530.381 276.23 530.381 275.71C530.381 275.31 530.181 275.08 529.611 274.94L528.781 274.73C527.941 274.52 527.531 274.08 527.531 273.42C527.531 272.57 528.241 272.03 529.281 272.03C530.301 272.03 530.961 272.59 530.991 273.49H530.321C530.301 272.93 529.911 272.6 529.261 272.6C528.581 272.6 528.201 272.89 528.201 273.41C528.201 273.78 528.461 274.04 528.991 274.17L529.821 274.38C530.661 274.59 531.041 274.98 531.041 275.68C531.041 276.55 530.301 277.12 529.201 277.12C528.111 277.12 527.431 276.54 527.431 275.64Z" fill="#475467"/>
<rect x="605" y="252" width="195" height="42" fill="white"/>
<rect x="605" y="252" width="195" height="42" stroke="#EAECF0"/>
<path d="M683.9 277.12C682.46 277.12 681.54 276.22 681.54 274.81H682.26C682.26 275.84 682.89 276.46 683.91 276.46C684.99 276.46 685.69 275.74 685.69 274.68C685.69 273.68 685.04 272.89 683.91 272.89C683.25 272.89 682.65 273.19 682.26 273.62L681.69 273.44L682.55 269.84H686.01V270.5H683.07L682.53 272.75C682.93 272.43 683.45 272.25 684.01 272.25C685.5 272.25 686.42 273.32 686.42 274.66C686.42 276.1 685.4 277.12 683.9 277.12ZM687.38 273.42C687.38 271.2 688.47 269.7 690.25 269.7C692.02 269.7 693.11 271.2 693.11 273.42C693.11 275.65 692.04 277.13 690.25 277.13C688.45 277.13 687.38 275.65 687.38 273.42ZM688.09 273.42C688.09 275.28 688.88 276.48 690.25 276.48C691.62 276.48 692.41 275.28 692.41 273.42C692.41 271.55 691.62 270.36 690.25 270.36C688.88 270.36 688.09 271.55 688.09 273.42ZM695.016 272.25L696.806 269.84H697.646L695.766 272.33C696.106 272.16 696.416 272.09 696.746 272.09C698.236 272.09 699.226 273.18 699.226 274.58C699.226 276.05 698.116 277.12 696.686 277.12C695.246 277.12 694.116 276.01 694.116 274.58C694.116 273.75 694.346 273.17 695.016 272.25ZM694.846 274.59C694.846 275.68 695.596 276.47 696.686 276.47C697.746 276.47 698.506 275.68 698.506 274.59C698.506 273.5 697.746 272.72 696.686 272.72C695.596 272.72 694.846 273.5 694.846 274.59ZM701.072 270.49H699.612V269.84H701.762V277H701.072V270.49ZM704.373 270.49H702.913V269.84H705.062V277H704.373V270.49ZM711.072 277H706.352V276.43L708.642 274.43C709.962 273.28 710.302 272.78 710.302 271.93C710.302 270.96 709.722 270.37 708.772 270.37C707.782 270.37 707.132 271.09 707.102 272.2H706.382C706.422 270.7 707.372 269.71 708.782 269.71C710.132 269.71 711.032 270.58 711.032 271.89C711.032 272.93 710.562 273.62 709.132 274.87L707.462 276.33H711.072V277ZM714.067 273.16H713.497V272.66L715.707 270.48H712.277V269.84H716.617V270.42L714.477 272.55C715.817 272.62 716.777 273.47 716.777 274.77C716.777 276.19 715.737 277.12 714.287 277.12C712.877 277.12 711.927 276.25 711.927 274.82H712.637C712.637 275.85 713.277 276.47 714.287 276.47C715.357 276.47 716.047 275.79 716.047 274.75C716.047 273.77 715.347 273.16 714.067 273.16ZM722.862 275.48H722.022V277H721.322V275.48H717.562V274.84L721.062 269.84H722.022V274.84H722.862V275.48ZM718.342 274.84H721.322V270.58L718.342 274.84Z" fill="#475467"/>
<rect x="800" y="252" width="195" height="42" fill="white"/>
<rect x="800" y="252" width="195" height="42" stroke="#EAECF0"/>
<path d="M853.31 270.49H851.85V269.84H854V277H853.31V270.49ZM856.611 270.49H855.151V269.84H857.301V277H856.611V270.49ZM859.016 277H858.336L861.126 269.84H861.826L859.016 277ZM863.779 270.49H862.319V269.84H864.469V277H863.779V270.49ZM865.859 273.42C865.859 271.2 866.949 269.7 868.729 269.7C870.499 269.7 871.589 271.2 871.589 273.42C871.589 275.65 870.519 277.13 868.729 277.13C866.929 277.13 865.859 275.65 865.859 273.42ZM866.569 273.42C866.569 275.28 867.359 276.48 868.729 276.48C870.099 276.48 870.889 275.28 870.889 273.42C870.889 271.55 870.099 270.36 868.729 270.36C867.359 270.36 866.569 271.55 866.569 273.42ZM872.668 277H871.988L874.778 269.84H875.478L872.668 277ZM880.498 277H875.778V276.43L878.068 274.43C879.388 273.28 879.728 272.78 879.728 271.93C879.728 270.96 879.148 270.37 878.198 270.37C877.208 270.37 876.558 271.09 876.528 272.2H875.808C875.848 270.7 876.798 269.71 878.208 269.71C879.558 269.71 880.458 270.58 880.458 271.89C880.458 272.93 879.988 273.62 878.558 274.87L876.888 276.33H880.498V277ZM881.493 273.42C881.493 271.2 882.583 269.7 884.363 269.7C886.133 269.7 887.223 271.2 887.223 273.42C887.223 275.65 886.153 277.13 884.363 277.13C882.563 277.13 881.493 275.65 881.493 273.42ZM882.203 273.42C882.203 275.28 882.993 276.48 884.363 276.48C885.733 276.48 886.523 275.28 886.523 273.42C886.523 271.55 885.733 270.36 884.363 270.36C882.993 270.36 882.203 271.55 882.203 273.42ZM892.94 277H888.22V276.43L890.51 274.43C891.83 273.28 892.17 272.78 892.17 271.93C892.17 270.96 891.59 270.37 890.64 270.37C889.65 270.37 889 271.09 888.97 272.2H888.25C888.29 270.7 889.24 269.71 890.65 269.71C892 269.71 892.9 270.58 892.9 271.89C892.9 272.93 892.43 273.62 891 274.87L889.33 276.33H892.94V277ZM898.802 275.48H897.962V277H897.262V275.48H893.502V274.84L897.002 269.84H897.962V274.84H898.802V275.48ZM894.282 274.84H897.262V270.58L894.282 274.84ZM910.088 277H905.368V276.43L907.658 274.43C908.978 273.28 909.318 272.78 909.318 271.93C909.318 270.96 908.738 270.37 907.788 270.37C906.798 270.37 906.148 271.09 906.118 272.2H905.398C905.438 270.7 906.388 269.71 907.798 269.71C909.148 269.71 910.048 270.58 910.048 271.89C910.048 272.93 909.578 273.62 908.148 274.87L906.478 276.33H910.088V277ZM913.083 273.16H912.513V272.66L914.723 270.48H911.293V269.84H915.633V270.42L913.493 272.55C914.833 272.62 915.793 273.47 915.793 274.77C915.793 276.19 914.753 277.12 913.303 277.12C911.893 277.12 910.943 276.25 910.943 274.82H911.653C911.653 275.85 912.293 276.47 913.303 276.47C914.373 276.47 915.063 275.79 915.063 274.75C915.063 273.77 914.363 273.16 913.083 273.16ZM917.646 273.28C917.306 273.28 917.016 272.99 917.016 272.66C917.016 272.32 917.306 272.04 917.646 272.04C917.986 272.04 918.276 272.32 918.276 272.66C918.276 272.99 917.986 273.28 917.646 273.28ZM917.646 277.11C917.306 277.11 917.016 276.83 917.016 276.5C917.016 276.16 917.306 275.87 917.646 275.87C917.986 275.87 918.276 276.16 918.276 276.5C918.276 276.83 917.986 277.11 917.646 277.11ZM924.229 277H919.509V276.43L921.799 274.43C923.119 273.28 923.459 272.78 923.459 271.93C923.459 270.96 922.879 270.37 921.929 270.37C920.939 270.37 920.289 271.09 920.259 272.2H919.539C919.579 270.7 920.529 269.71 921.939 269.71C923.289 269.71 924.189 270.58 924.189 271.89C924.189 272.93 923.719 273.62 922.289 274.87L920.619 276.33H924.229V277ZM926.503 270.49H925.043V269.84H927.193V277H926.503V270.49ZM929.443 273.28C929.103 273.28 928.813 272.99 928.813 272.66C928.813 272.32 929.103 272.04 929.443 272.04C929.783 272.04 930.073 272.32 930.073 272.66C930.073 272.99 929.783 273.28 929.443 273.28ZM929.443 277.11C929.103 277.11 928.813 276.83 928.813 276.5C928.813 276.16 929.103 275.87 929.443 275.87C929.783 275.87 930.073 276.16 930.073 276.5C930.073 276.83 929.783 277.11 929.443 277.11ZM931.405 273.42C931.405 271.2 932.495 269.7 934.275 269.7C936.045 269.7 937.135 271.2 937.135 273.42C937.135 275.65 936.065 277.13 934.275 277.13C932.475 277.13 931.405 275.65 931.405 273.42ZM932.115 273.42C932.115 275.28 932.905 276.48 934.275 276.48C935.645 276.48 936.435 275.28 936.435 273.42C936.435 271.55 935.645 270.36 934.275 270.36C932.905 270.36 932.115 271.55 932.115 273.42ZM940.134 273.16H939.564V272.66L941.774 270.48H938.344V269.84H942.684V270.42L940.544 272.55C941.884 272.62 942.844 273.47 942.844 274.77C942.844 276.19 941.804 277.12 940.354 277.12C938.944 277.12 937.994 276.25 937.994 274.82H938.704C938.704 275.85 939.344 276.47 940.354 276.47C941.424 276.47 942.114 275.79 942.114 274.75C942.114 273.77 941.414 273.16 940.134 273.16Z" fill="#475467"/>
<path d="M995 252H1190V294H995V252Z" fill="white"/>
<path d="M995 252H1190V294H995V252Z" stroke="#EAECF0"/>
<path d="M1075.83 268V267.334C1075.83 266.4 1075.83 265.934 1075.65 265.577C1075.49 265.263 1075.24 265.008 1074.92 264.849C1074.57 264.667 1074.1 264.667 1073.17 264.667H1071.83C1070.9 264.667 1070.43 264.667 1070.08 264.849C1069.76 265.008 1069.51 265.263 1069.35 265.577C1069.17 265.934 1069.17 266.4 1069.17 267.334V268M1070.83 272.584V276.75M1074.17 272.584V276.75M1065 268H1080M1078.33 268V277.334C1078.33 278.734 1078.33 279.434 1078.06 279.969C1077.82 280.439 1077.44 280.821 1076.97 281.061C1076.43 281.334 1075.73 281.334 1074.33 281.334H1070.67C1069.27 281.334 1068.57 281.334 1068.03 281.061C1067.56 280.821 1067.18 280.439 1066.94 279.969C1066.67 279.434 1066.67 278.734 1066.67 277.334V268" stroke="#475467" stroke-linecap="round" stroke-linejoin="round"/>
<path d="M1104.9 278.096C1104.93 277.752 1104.95 277.579 1105.01 277.418C1105.05 277.276 1105.12 277.14 1105.2 277.014C1105.29 276.873 1105.42 276.75 1105.66 276.505L1116.67 265.5C1117.59 264.579 1119.08 264.579 1120 265.5C1120.92 266.42 1120.92 267.913 1120 268.833L1108.99 279.838C1108.75 280.084 1108.63 280.206 1108.49 280.299C1108.36 280.382 1108.22 280.447 1108.08 280.494C1107.92 280.546 1107.75 280.565 1107.4 280.603L1104.58 280.917L1104.9 278.096Z" stroke="#475467" stroke-linecap="round" stroke-linejoin="round"/>
</g>
<defs>
<filter id="filter0_d_102_6012" x="18" y="72.5" width="324" height="44" filterUnits="userSpaceOnUse" color-interpolation-filters="sRGB">
<feFlood flood-opacity="0" result="BackgroundImageFix"/>
<feColorMatrix in="SourceAlpha" type="matrix" values="0 0 0 0 0 0 0 0 0 0 0 0 0 0 0 0 0 0 127 0" result="hardAlpha"/>
<feOffset dy="1"/>
<feGaussianBlur stdDeviation="1"/>
<feColorMatrix type="matrix" values="0 0 0 0 0.0627451 0 0 0 0 0.0941176 0 0 0 0 0.156863 0 0 0 0.05 0"/>
<feBlend mode="normal" in2="BackgroundImageFix" result="effect1_dropShadow_102_6012"/>
<feBlend mode="normal" in="SourceGraphic" in2="effect1_dropShadow_102_6012" result="shape"/>
</filter>
<clipPath id="clip0_102_6012">
<rect x="20" y="134" width="1170" height="160" rx="4" fill="white"/>
</clipPath>
</defs>
</svg>
