<svg width="28" height="28" viewBox="0 0 28 28" fill="none" xmlns="http://www.w3.org/2000/svg">
<circle cx="14" cy="14" r="14" fill="#014DAF"/>
<path d="M7.33325 12.6668H20.6666V11.4668C20.6666 10.7201 20.6666 10.3467 20.5213 10.0615C20.3934 9.81063 20.1895 9.60665 19.9386 9.47882C19.6534 9.3335 19.28 9.3335 18.5333 9.3335H9.46659C8.71985 9.3335 8.34648 9.3335 8.06126 9.47882C7.81038 9.60665 7.60641 9.81063 7.47858 10.0615C7.33325 10.3467 7.33325 10.7201 7.33325 11.4668V16.5335C7.33325 17.2802 7.33325 17.6536 7.47858 17.9388C7.60641 18.1897 7.81038 18.3937 8.06126 18.5215C8.34648 18.6668 8.71985 18.6668 9.46659 18.6668H13.3333M15.6666 20.0002L17.0166 19.7302C17.1343 19.7066 17.1931 19.6949 17.248 19.6733C17.2967 19.6542 17.343 19.6294 17.3859 19.5995C17.4343 19.5658 17.4767 19.5233 17.5616 19.4385L20.3333 16.6668C20.7014 16.2986 20.7014 15.7017 20.3333 15.3335C19.9651 14.9653 19.3681 14.9653 18.9999 15.3335L16.2283 18.1051C16.1434 18.19 16.101 18.2325 16.0672 18.2808C16.0373 18.3237 16.0125 18.37 15.9934 18.4187C15.9719 18.4736 15.9601 18.5325 15.9366 18.6502L15.6666 20.0002Z" stroke="white" stroke-linecap="round" stroke-linejoin="round"/>
</svg>
