<svg width="29" height="28" viewBox="0 0 29 28" fill="none" xmlns="http://www.w3.org/2000/svg">
<circle cx="14.5" cy="14" r="14" fill="#014DAF"/>
<path d="M19.1666 20.0002V16.0002M17.1666 18.0002H21.1666M21.1666 12.6668H7.83325M21.1666 14.0002V11.4668C21.1666 10.7201 21.1666 10.3467 21.0213 10.0615C20.8934 9.81063 20.6895 9.60665 20.4386 9.47882C20.1534 9.3335 19.78 9.3335 19.0333 9.3335H9.96659C9.21985 9.3335 8.84648 9.3335 8.56126 9.47882C8.31038 9.60665 8.10641 9.81063 7.97858 10.0615C7.83325 10.3467 7.83325 10.7201 7.83325 11.4668V16.5335C7.83325 17.2802 7.83325 17.6536 7.97858 17.9388C8.10641 18.1897 8.31038 18.3937 8.56126 18.5215C8.84648 18.6668 9.21985 18.6668 9.96659 18.6668H14.4999" stroke="white" stroke-linecap="round" stroke-linejoin="round"/>
</svg>
