<svg width="29" height="28" viewBox="0 0 29 28" fill="none" xmlns="http://www.w3.org/2000/svg">
<circle cx="14.5" cy="14" r="14" fill="#014DAF"/>
<path d="M21.1666 12.6668H7.83325M13.8333 15.3335H10.4999M7.83325 11.4668L7.83325 16.5335C7.83325 17.2802 7.83325 17.6536 7.97858 17.9388C8.10641 18.1897 8.31038 18.3937 8.56126 18.5215C8.84648 18.6668 9.21985 18.6668 9.96659 18.6668L19.0333 18.6668C19.78 18.6668 20.1534 18.6668 20.4386 18.5215C20.6895 18.3937 20.8934 18.1897 21.0213 17.9388C21.1666 17.6536 21.1666 17.2802 21.1666 16.5335V11.4668C21.1666 10.7201 21.1666 10.3467 21.0213 10.0615C20.8934 9.81063 20.6895 9.60665 20.4386 9.47882C20.1534 9.3335 19.78 9.3335 19.0333 9.3335L9.96659 9.3335C9.21985 9.3335 8.84648 9.3335 8.56126 9.47882C8.31038 9.60665 8.10641 9.81063 7.97858 10.0615C7.83325 10.3467 7.83325 10.7201 7.83325 11.4668Z" stroke="white" stroke-linecap="round" stroke-linejoin="round"/>
</svg>
