<svg width="57" height="20" viewBox="0 0 57 20" fill="none" xmlns="http://www.w3.org/2000/svg">
<rect x="0.5" width="56" height="20" rx="4" fill="#EFFAF6"/>
<path d="M23.064 12.588C23.064 11.544 23.676 10.704 24.636 10.356C23.82 10.008 23.376 9.324 23.376 8.448C23.376 7.092 24.54 6.168 26.268 6.168C27.972 6.168 29.124 7.092 29.124 8.46C29.124 9.348 28.668 10.032 27.852 10.356C28.824 10.668 29.448 11.532 29.448 12.6C29.448 14.124 28.176 15.144 26.256 15.144C24.324 15.144 23.064 14.124 23.064 12.588ZM24.456 8.52C24.456 9.372 25.164 9.924 26.244 9.924C27.336 9.924 28.02 9.384 28.02 8.544C28.02 7.716 27.336 7.188 26.244 7.188C25.164 7.188 24.456 7.716 24.456 8.52ZM24.216 12.504C24.216 13.476 25.02 14.1 26.256 14.1C27.48 14.1 28.284 13.476 28.284 12.504C28.284 11.544 27.492 10.932 26.244 10.932C25.008 10.932 24.216 11.544 24.216 12.504ZM31.5271 15.144C31.0591 15.144 30.6631 14.76 30.6631 14.304C30.6631 13.836 31.0591 13.452 31.5271 13.452C31.9831 13.452 32.3791 13.836 32.3791 14.304C32.3791 14.76 31.9831 15.144 31.5271 15.144ZM36.4337 15.144C34.6577 15.144 33.5057 14.016 33.5057 12.288H34.6697C34.6697 13.404 35.3537 14.088 36.4577 14.088C37.6337 14.088 38.3897 13.308 38.3897 12.132C38.3897 11.016 37.6817 10.188 36.4697 10.188C35.7377 10.188 35.0657 10.536 34.6697 11.028L33.6737 10.776L34.7297 6.324H39.0737V7.404H35.5817L35.0057 9.708C35.4617 9.36 36.0377 9.18 36.6857 9.18C38.4497 9.18 39.5897 10.416 39.5897 12.084C39.5897 13.884 38.3057 15.144 36.4337 15.144ZM44.9035 8.376C44.9035 9.66 43.9915 10.584 42.7075 10.584C41.4355 10.584 40.5235 9.66 40.5235 8.376C40.5235 7.08 41.4355 6.156 42.7075 6.156C43.9915 6.156 44.9035 7.08 44.9035 8.376ZM49.4755 6.336L42.8875 15H41.7355L48.3235 6.336H49.4755ZM43.9795 8.376C43.9795 7.596 43.4635 7.056 42.7075 7.056C41.9635 7.056 41.4475 7.596 41.4475 8.376C41.4475 9.144 41.9635 9.684 42.7075 9.684C43.4515 9.684 43.9795 9.144 43.9795 8.376ZM50.7115 12.948C50.7115 14.232 49.7875 15.156 48.5155 15.156C47.2435 15.156 46.3195 14.232 46.3195 12.948C46.3195 11.652 47.2435 10.74 48.5155 10.74C49.7875 10.74 50.7115 11.652 50.7115 12.948ZM49.7755 12.948C49.7755 12.168 49.2715 11.628 48.5155 11.628C47.7715 11.628 47.2555 12.168 47.2555 12.948C47.2555 13.716 47.7715 14.256 48.5155 14.256C49.2595 14.256 49.7755 13.716 49.7755 12.948Z" fill="#29A174"/>
<path d="M9.5 13L15.5 7M15.5 7H11.5M15.5 7V11" stroke="#29A174" stroke-linecap="round" stroke-linejoin="round"/>
</svg>
