<svg width="56" height="20" viewBox="0 0 56 20" fill="none" xmlns="http://www.w3.org/2000/svg">
<rect width="56" height="20" rx="4" fill="#EFFAF6"/>
<path d="M22.96 10.476H25.48V7.956H26.44V10.476H28.96V11.436H26.44V13.968H25.48V11.436H22.96V10.476ZM31.6139 9.072L33.6419 6.324H35.0099L32.8379 9.204C33.1379 9.084 33.4499 9.024 33.7499 9.024C35.5499 9.024 36.7619 10.32 36.7619 12.036C36.7619 13.848 35.3939 15.144 33.6059 15.144C31.8059 15.144 30.4139 13.788 30.4139 12.036C30.4139 11.004 30.7259 10.284 31.6139 9.072ZM31.6139 12.048C31.6139 13.236 32.4299 14.088 33.6059 14.088C34.7579 14.088 35.5739 13.236 35.5739 12.048C35.5739 10.86 34.7579 10.02 33.6059 10.02C32.4299 10.02 31.6139 10.86 31.6139 12.048ZM42.1418 8.376C42.1418 9.66 41.2298 10.584 39.9458 10.584C38.6738 10.584 37.7618 9.66 37.7618 8.376C37.7618 7.08 38.6738 6.156 39.9458 6.156C41.2298 6.156 42.1418 7.08 42.1418 8.376ZM46.7138 6.336L40.1258 15H38.9738L45.5618 6.336H46.7138ZM41.2178 8.376C41.2178 7.596 40.7018 7.056 39.9458 7.056C39.2018 7.056 38.6858 7.596 38.6858 8.376C38.6858 9.144 39.2018 9.684 39.9458 9.684C40.6898 9.684 41.2178 9.144 41.2178 8.376ZM47.9498 12.948C47.9498 14.232 47.0258 15.156 45.7538 15.156C44.4818 15.156 43.5578 14.232 43.5578 12.948C43.5578 11.652 44.4818 10.74 45.7538 10.74C47.0258 10.74 47.9498 11.652 47.9498 12.948ZM47.0138 12.948C47.0138 12.168 46.5098 11.628 45.7538 11.628C45.0098 11.628 44.4938 12.168 44.4938 12.948C44.4938 13.716 45.0098 14.256 45.7538 14.256C46.4978 14.256 47.0138 13.716 47.0138 12.948Z" fill="#29A174"/>
<path d="M9 13L15 7M15 7H11M15 7V11" stroke="#29A174" stroke-linecap="round" stroke-linejoin="round"/>
</svg>
