<svg width="16" height="16" viewBox="0 0 16 16" fill="none" xmlns="http://www.w3.org/2000/svg">
<g clip-path="url(#clip0_110_12)">
<path d="M5.99963 14.6667L5.83254 12.3274C5.74271 11.0697 6.73877 10 7.99963 10C9.26049 10 10.2565 11.0697 10.1667 12.3274L9.99963 14.6667" stroke="black" stroke-opacity="0.501961"/>
<path d="M1.5677 8.80889C1.33235 7.27741 1.21468 6.51168 1.50421 5.83284C1.79375 5.154 2.43612 4.68954 3.72086 3.76063L4.68076 3.06659C6.27896 1.91103 7.07806 1.33325 8.0001 1.33325C8.92214 1.33325 9.72124 1.91103 11.3194 3.06659L12.2793 3.76063C13.5641 4.68954 14.2065 5.154 14.496 5.83284C14.7855 6.51168 14.6679 7.27741 14.4325 8.80889L14.2318 10.1148C13.8982 12.2859 13.7314 13.3714 12.9528 14.019C12.1742 14.6666 11.0359 14.6666 8.75931 14.6666H7.24089C4.96432 14.6666 3.82604 14.6666 3.04743 14.019C2.26883 13.3714 2.10201 12.2859 1.76839 10.1148L1.5677 8.80889Z" stroke="black" stroke-opacity="0.501961" stroke-linejoin="round"/>
</g>
<defs>
<clipPath id="clip0_110_12">
<rect width="16" height="16" fill="white"/>
</clipPath>
</defs>
</svg>
