<svg width="37" height="36" viewBox="0 0 37 36" fill="none" xmlns="http://www.w3.org/2000/svg">
<path d="M21.8333 13.0003V12.3337C21.8333 11.4002 21.8333 10.9335 21.6517 10.577C21.4919 10.2634 21.2369 10.0084 20.9233 9.84865C20.5668 9.66699 20.1001 9.66699 19.1667 9.66699H17.8333C16.8999 9.66699 16.4332 9.66699 16.0767 9.84865C15.7631 10.0084 15.5081 10.2634 15.3483 10.577C15.1667 10.9335 15.1667 11.4002 15.1667 12.3337V13.0003M16.8333 17.5837V21.7503M20.1667 17.5837V21.7503M11 13.0003H26M24.3333 13.0003V22.3337C24.3333 23.7338 24.3333 24.4339 24.0608 24.9686C23.8212 25.439 23.4387 25.8215 22.9683 26.0612C22.4335 26.3337 21.7335 26.3337 20.3333 26.3337H16.6667C15.2665 26.3337 14.5665 26.3337 14.0317 26.0612C13.5613 25.8215 13.1788 25.439 12.9392 24.9686C12.6667 24.4339 12.6667 23.7338 12.6667 22.3337V13.0003" stroke="#475467" stroke-linecap="round" stroke-linejoin="round"/>
</svg>
