<svg width="37" height="36" viewBox="0 0 37 36" fill="none" xmlns="http://www.w3.org/2000/svg">
<path d="M10.8966 23.0963C10.9349 22.7517 10.954 22.5794 11.0062 22.4184C11.0524 22.2755 11.1178 22.1396 11.2004 22.0142C11.2936 21.8729 11.4162 21.7503 11.6614 21.5052L22.6666 10.4999C23.5871 9.57945 25.0795 9.57945 25.9999 10.4999C26.9204 11.4204 26.9204 12.9128 25.9999 13.8333L14.9947 24.8385C14.7495 25.0836 14.627 25.2062 14.4857 25.2994C14.3603 25.3821 14.2243 25.4474 14.0815 25.4937C13.9204 25.5458 13.7481 25.5649 13.4036 25.6032L10.5833 25.9166L10.8966 23.0963Z" stroke="#475467" stroke-linecap="round" stroke-linejoin="round"/>
</svg>
